<?xml version="1.0" standalone="no"?>
<!DOCTYPE svg PUBLIC "-//W3C//DTD SVG 20010904//EN"
 "http://www.w3.org/TR/2001/REC-SVG-20010904/DTD/svg10.dtd">
<svg version="1.0" xmlns="http://www.w3.org/2000/svg"
 width="1024.000000pt" height="1024.000000pt" viewBox="0 0 1024.000000 1024.000000"
 preserveAspectRatio="xMidYMid meet">

<g transform="translate(0.000000,1024.000000) scale(0.100000,-0.100000)"
fill="#000000" stroke="none">
<path d="M4492 9409 c-76 -38 -73 -22 -74 -444 l0 -377 28 -14 c15 -8 47 -31
71 -50 l43 -35 2 393 3 393 555 0 555 0 3 -393 2 -393 48 39 c26 22 57 45 70
51 l22 12 0 373 c0 364 -1 374 -21 400 -11 15 -38 35 -60 46 -37 19 -61 20
-621 20 -575 0 -584 0 -626 -21z"/>
<path d="M5030 8999 c-101 -108 -136 -157 -170 -230 -13 -30 -25 -56 -27 -58
-2 -2 -12 4 -22 14 -19 17 -21 16 -45 -11 -40 -47 -77 -128 -89 -197 -15 -88
0 -161 58 -287 50 -110 60 -148 46 -169 -18 -28 -42 1 -103 126 -55 113 -72
138 -144 210 -71 73 -94 89 -187 133 -58 27 -109 50 -112 50 -3 0 -5 -9 -5
-21 0 -16 -4 -19 -17 -14 -70 29 -394 87 -408 74 -9 -9 34 -345 54 -417 l19
-74 -29 -10 c-16 -5 -29 -13 -29 -17 0 -3 22 -51 49 -107 88 -179 212 -269
462 -338 67 -18 118 -36 113 -39 -5 -3 -46 -12 -90 -21 -152 -28 -254 -81
-322 -163 l-35 -43 32 -6 31 -7 -33 -41 c-65 -78 -157 -256 -157 -302 0 -29
241 -86 373 -88 l98 -1 -4 -27 c-2 -16 -3 -28 -2 -28 36 0 189 37 230 55 81
35 175 129 214 213 56 119 68 137 102 155 57 31 159 5 159 -40 0 -21 -36 -87
-108 -197 -88 -136 -137 -229 -167 -316 -29 -84 -50 -236 -41 -292 l6 -37 -69
68 c-122 123 -286 184 -432 162 -152 -24 -239 -88 -304 -222 -43 -90 -52 -157
-31 -238 31 -123 101 -194 222 -226 146 -38 294 59 294 193 0 143 -169 240
-243 140 -11 -15 -17 -34 -14 -42 6 -14 9 -14 28 5 17 17 29 20 56 16 97 -16
119 -141 36 -204 -31 -24 -46 -28 -104 -28 -60 0 -71 3 -106 31 -21 16 -48 50
-61 75 -20 38 -23 55 -20 125 5 95 31 149 100 208 104 89 282 80 417 -22 118
-89 212 -234 320 -492 38 -91 90 -212 116 -270 63 -139 116 -272 111 -277 -2
-2 -12 10 -23 27 -27 43 -158 174 -223 225 -178 137 -304 160 -457 85 -106
-52 -164 -146 -165 -268 -1 -109 53 -201 141 -238 43 -18 134 -18 170 0 84 44
116 138 75 219 -21 39 -76 64 -109 49 -33 -15 -32 -25 4 -38 64 -25 53 -121
-17 -151 -91 -38 -192 50 -192 167 1 67 72 156 146 180 60 20 159 8 231 -28
123 -62 274 -209 354 -344 91 -151 129 -285 129 -451 0 -255 -113 -472 -292
-562 -120 -60 -108 -116 -109 508 l0 542 -22 -30 c-12 -16 -41 -50 -64 -75
l-42 -46 -3 -400 c-3 -368 -4 -402 -21 -428 -26 -40 -89 -64 -198 -76 -125
-14 -159 -24 -258 -73 -80 -39 -90 -41 -207 -48 -164 -10 -215 -26 -312 -99
-95 -71 -105 -76 -230 -94 -78 -12 -114 -24 -182 -59 -48 -25 -114 -50 -152
-57 -38 -8 -68 -17 -68 -21 0 -25 158 -123 265 -163 90 -35 155 -83 208 -153
116 -156 164 -187 343 -227 133 -29 191 -57 275 -131 118 -104 196 -131 426
-144 158 -10 170 -13 385 -95 207 -79 403 -72 627 21 131 55 165 63 306 74
126 9 249 35 303 63 15 8 58 41 96 75 88 77 150 107 293 137 172 37 236 77
324 205 58 85 117 132 228 179 105 44 251 134 251 155 0 7 -29 17 -72 25 -48
8 -101 28 -157 57 -66 35 -105 48 -175 60 -102 16 -154 37 -212 87 -81 69
-128 84 -292 96 -119 8 -126 10 -230 59 -87 41 -125 53 -193 62 -190 23 -219
33 -261 90 -16 22 -18 55 -19 414 -1 215 -4 398 -8 408 -6 16 -10 15 -49 -12
-23 -17 -51 -49 -62 -70 -19 -38 -20 -58 -20 -446 0 -462 10 -423 -94 -385
-36 14 -68 36 -95 65 -23 25 -42 46 -43 47 0 2 -4 152 -8 333 -5 251 -11 348
-24 407 -29 133 -131 427 -211 608 -184 418 -215 514 -215 670 0 157 42 270
135 365 121 125 261 145 399 58 152 -94 160 -299 16 -373 -139 -71 -290 78
-198 195 l21 27 -24 -7 c-56 -17 -85 -75 -76 -152 6 -54 46 -108 103 -137 50
-27 153 -28 205 -2 49 23 108 82 129 129 l17 39 22 -44 c23 -48 27 -103 11
-157 -5 -19 -8 -36 -7 -38 2 -1 20 3 40 9 28 9 43 8 63 -1 l26 -11 -31 54
c-39 67 -41 106 -6 106 36 0 94 -57 125 -123 l28 -58 11 31 c10 31 12 31 58
25 26 -4 77 -20 112 -36 35 -16 67 -29 73 -29 5 0 -5 21 -23 46 -38 56 -106
101 -167 110 -33 5 -57 17 -86 44 -53 48 -94 69 -153 77 -78 10 -83 15 -84 86
-2 159 -97 278 -262 329 -107 32 -190 21 -309 -40 -4 -2 8 25 28 60 20 34 61
112 91 171 62 121 102 159 168 159 57 0 83 -25 130 -125 90 -196 185 -268 393
-301 l84 -14 -6 28 -5 28 57 -5 c106 -9 412 58 412 91 0 44 -95 227 -156 303
-19 23 -34 44 -34 47 0 3 11 6 25 6 32 0 31 4 -5 50 -63 79 -179 137 -326 160
-38 6 -73 15 -77 19 -4 4 41 20 100 35 151 39 280 101 346 168 57 57 123 161
156 245 l20 52 -29 6 c-17 4 -30 10 -30 15 0 5 9 46 19 92 11 46 27 148 36
228 9 79 19 149 22 154 13 20 -295 -27 -386 -59 -37 -13 -40 -12 -43 5 -3 18
-9 17 -80 -15 -171 -74 -264 -167 -355 -355 -66 -135 -80 -155 -100 -139 -23
19 -15 54 40 176 l52 118 0 105 c0 98 -2 110 -32 171 -18 35 -44 75 -57 88
-24 23 -27 23 -44 8 -18 -16 -21 -13 -60 66 -38 78 -135 201 -219 279 l-29 28
-84 -91z m99 -693 l1 -169 31 44 c38 53 133 153 174 182 17 11 -10 -22 -60
-74 -138 -145 -137 -143 -145 -446 -4 -140 -10 -257 -14 -260 -3 -4 -6 83 -7
193 0 290 -7 337 -56 410 -23 32 -71 88 -107 123 -37 35 -65 66 -62 68 8 8
181 -168 205 -207 l21 -35 2 300 c1 249 3 278 9 170 3 -71 7 -206 8 -299z
m-902 -75 c76 -65 174 -150 217 -190 44 -39 81 -70 82 -68 2 1 -11 40 -27 86
-16 46 -28 89 -26 95 2 6 10 -7 17 -29 7 -22 32 -81 56 -131 52 -107 94 -152
249 -268 61 -46 131 -106 157 -134 47 -50 108 -138 108 -154 0 -5 -41 34 -92
87 -78 83 -299 267 -378 318 -14 8 -90 29 -169 46 -132 28 -177 41 -140 41 19
0 249 -39 274 -46 13 -4 0 15 -35 51 -48 50 -314 298 -410 383 -19 17 -32 32
-28 32 5 0 70 -53 145 -119z m1673 -122 c-157 -154 -227 -229 -210 -225 41 10
251 46 268 46 35 0 0 -11 -118 -35 -69 -15 -141 -32 -162 -39 -82 -29 -388
-283 -464 -387 -54 -75 -55 -49 0 30 64 94 135 166 233 234 185 130 238 199
324 426 5 13 12 22 15 19 2 -3 -9 -43 -26 -89 -48 -130 -48 -129 11 -73 92 88
354 323 359 323 3 0 -101 -104 -230 -230z m-1140 -684 c-137 -16 -149 -20
-359 -124 -90 -45 -165 -80 -167 -78 -2 2 71 44 162 93 l167 89 -62 3 c-33 2
-61 7 -61 12 0 9 113 14 340 17 l95 1 -115 -13z m1024 -6 c6 -5 -16 -9 -54 -9
-38 0 -60 -4 -54 -9 5 -5 72 -40 149 -79 148 -75 220 -120 125 -78 -30 13
-120 56 -200 95 -142 69 -147 71 -270 85 l-125 14 210 -5 c116 -3 214 -9 219
-14z m-820 -3281 c-4 -7 -26 -35 -48 -62 -51 -61 -126 -99 -254 -130 -177 -43
-196 -57 -241 -180 -61 -169 -68 -177 -216 -245 -94 -44 -137 -77 -162 -124
-8 -16 -17 -27 -19 -24 -3 3 2 20 11 39 36 69 64 96 142 133 43 20 90 48 105
62 28 27 72 116 83 173 l7 34 -53 -48 c-94 -84 -115 -89 -329 -72 -83 7 -102
5 -154 -13 -68 -24 -171 -27 -226 -7 -34 13 -32 13 55 18 73 3 101 9 149 32
l59 29 143 -7 c166 -8 158 -10 279 84 44 35 102 73 128 85 l49 23 -51 11 c-35
7 -74 8 -128 1 -43 -6 -132 -7 -199 -4 -99 6 -135 3 -194 -11 -78 -19 -152
-17 -210 7 -32 13 -30 14 56 14 72 0 102 5 157 27 63 24 79 26 220 27 84 0
186 0 227 1 41 1 127 -2 190 -6 111 -7 118 -6 200 23 104 36 179 73 204 101
21 23 31 28 20 9z m236 -35 c16 -31 63 -80 143 -150 129 -113 142 -121 249
-159 117 -42 184 -82 234 -141 47 -55 92 -83 201 -122 65 -24 128 -71 165
-124 l22 -32 -39 34 c-51 45 -129 80 -204 92 -89 14 -104 22 -182 95 -51 48
-94 77 -155 105 -46 21 -86 39 -89 39 -2 0 9 -21 26 -47 16 -27 46 -100 65
-163 l36 -115 76 -72 c41 -40 73 -73 69 -73 -3 0 -32 16 -65 35 -90 53 -126
99 -158 202 -47 157 -83 206 -209 290 -33 22 -92 70 -131 107 -40 36 -74 66
-77 66 -15 0 -47 -117 -47 -171 0 -76 18 -119 65 -155 91 -70 115 -97 153
-177 22 -45 57 -102 79 -127 37 -42 63 -81 63 -94 0 -4 -33 20 -72 53 -56 45
-84 78 -122 140 -36 63 -59 89 -94 111 -54 34 -57 32 -79 -60 -19 -83 -16
-112 23 -225 42 -122 43 -163 2 -95 -15 25 -38 58 -51 73 l-24 28 -50 -50
c-28 -28 -53 -51 -57 -51 -3 0 13 37 34 82 30 61 40 94 40 131 0 29 13 85 31
137 l30 89 -25 81 c-14 45 -26 92 -26 106 0 25 0 25 -47 -14 -27 -21 -82 -60
-124 -85 -88 -54 -96 -68 -102 -177 -5 -99 -30 -152 -105 -224 -34 -33 -62
-65 -62 -73 0 -7 -5 -13 -11 -13 -21 0 0 59 40 113 22 29 47 69 56 90 15 35
21 128 9 140 -3 3 -45 -15 -92 -39 -64 -33 -102 -61 -145 -107 l-59 -62 33 50
c48 74 79 104 131 127 45 19 89 61 150 141 16 20 78 66 143 107 64 39 137 94
164 121 49 49 99 139 122 217 7 23 15 42 18 42 3 0 17 -21 31 -47z m355 -49
c50 -8 135 -14 190 -14 78 0 126 -6 215 -29 63 -17 161 -34 217 -39 89 -8 113
-14 188 -50 48 -23 113 -46 146 -51 33 -6 83 -22 112 -36 29 -14 41 -23 27
-20 -14 4 -69 10 -122 14 -74 7 -113 16 -165 39 -89 40 -87 40 -233 52 -69 5
-174 21 -234 35 -60 14 -111 23 -113 21 -3 -2 28 -31 68 -65 73 -61 97 -73
226 -111 54 -15 87 -32 125 -65 65 -55 147 -105 211 -129 64 -24 55 -29 -18
-10 -80 21 -104 35 -177 100 -78 70 -99 81 -201 103 -116 26 -128 32 -211 110
l-75 69 -113 26 c-62 14 -139 38 -170 53 -64 29 -81 51 -20 26 20 -9 78 -22
127 -29z"/>
<path d="M2965 7876 c-16 -7 -39 -23 -50 -36 -19 -21 -20 -38 -23 -517 l-3
-495 40 -39 39 -39 626 0 c405 0 626 3 626 10 0 5 -51 35 -113 65 l-114 55
-466 0 c-431 0 -468 1 -484 18 -17 16 -18 48 -16 424 1 224 4 412 8 418 4 6
164 10 463 10 l456 0 -35 33 c-19 17 -48 49 -63 70 l-28 37 -417 0 c-323 -1
-423 -4 -446 -14z"/>
<path d="M6375 7863 c-10 -14 -36 -46 -58 -70 l-40 -43 450 0 c336 0 452 -3
461 -12 9 -9 12 -117 12 -425 0 -397 -1 -413 -19 -423 -13 -6 -183 -10 -484
-10 l-464 0 -112 -55 c-61 -30 -111 -59 -111 -65 0 -7 199 -10 613 -10 563 0
615 1 647 18 70 35 70 31 70 552 0 423 -2 468 -18 500 -34 70 -36 70 -508 70
l-422 0 -17 -27z"/>
<path d="M5295 6254 c-68 -35 -98 -84 -98 -160 0 -62 24 -109 73 -141 45 -31
115 -31 160 0 l34 22 1 105 c1 58 5 115 9 127 18 50 -110 83 -179 47z"/>
<path d="M5595 6254 c-46 -24 -63 -43 -81 -90 -45 -119 29 -244 146 -244 133
0 213 159 137 272 -49 72 -133 98 -202 62z"/>
<path d="M5875 6254 c-16 -9 -31 -17 -32 -18 -1 -1 5 -22 13 -46 15 -41 15
-122 2 -204 -4 -25 55 -56 108 -56 87 0 163 94 150 184 -8 50 -38 99 -78 129
-37 27 -123 33 -163 11z"/>
<path d="M5425 5901 c-62 -28 -79 -53 -83 -124 -3 -52 0 -67 20 -96 47 -70
144 -92 208 -48 54 36 73 70 78 137 6 77 -10 102 -83 129 -68 26 -89 26 -140
2z"/>
<path d="M5748 5893 l-58 -26 0 -98 0 -99 42 -27 c56 -37 137 -39 186 -5 95
68 86 207 -18 260 -56 28 -81 27 -152 -5z"/>
<path d="M5600 5589 c-19 -10 -42 -19 -52 -19 -29 0 -58 -48 -58 -99 0 -89 64
-151 156 -151 95 0 159 69 151 163 -5 53 -24 80 -79 108 -46 24 -73 23 -118
-2z"/>
<path d="M6673 2479 c-104 -14 -183 -72 -227 -168 -30 -68 -29 -216 2 -286 48
-104 113 -144 233 -145 82 0 153 27 199 75 20 22 21 27 10 54 l-12 31 -40 -34
c-95 -82 -214 -62 -261 43 -16 35 -21 67 -21 136 -1 105 13 150 55 191 26 25
38 29 89 29 69 0 91 -16 116 -81 31 -81 66 -48 76 71 3 39 1 41 -42 62 -53 25
-106 32 -177 22z"/>
<path d="M1010 2452 c0 -17 7 -24 30 -28 l30 -6 0 -238 0 -238 -30 -7 c-24 -5
-30 -12 -30 -32 l0 -25 213 2 c321 3 282 10 308 -60 16 -44 27 -60 40 -60 17
0 19 9 21 70 0 39 1 76 2 83 1 6 -16 16 -36 21 l-38 10 0 237 0 237 36 6 c28
6 35 11 32 27 -3 19 -12 20 -126 22 -121 2 -122 2 -122 -21 0 -17 7 -24 30
-28 l30 -6 0 -239 0 -239 -105 0 -105 0 0 239 0 239 36 6 c26 5 34 11 30 22
-3 9 -6 19 -6 22 0 4 -54 7 -120 7 -118 0 -120 0 -120 -23z"/>
<path d="M1660 2454 c0 -23 17 -34 51 -34 18 0 19 -10 19 -239 l0 -239 -36 -6
c-29 -6 -35 -11 -32 -29 3 -22 4 -22 224 -22 l222 0 7 79 c5 61 4 81 -7 87
-26 17 -36 8 -58 -51 l-22 -60 -89 0 -89 0 0 105 0 105 48 0 c47 0 50 -1 67
-40 12 -27 23 -39 33 -35 7 3 16 5 18 5 2 0 4 44 4 99 0 91 -2 99 -21 104 -20
5 -22 2 -44 -60 -3 -8 -23 -13 -55 -13 l-50 0 0 105 0 105 70 0 70 0 22 -45
c17 -35 27 -45 46 -45 23 0 24 3 18 38 -3 20 -6 53 -6 72 l0 35 -205 0 c-203
0 -205 0 -205 -21z"/>
<path d="M2160 2453 c0 -17 8 -24 35 -29 l35 -6 0 -238 0 -238 -36 -6 c-29 -6
-35 -11 -32 -29 3 -21 8 -22 136 -25 82 -2 132 0 132 7 0 5 3 16 6 24 4 12 -5
17 -40 22 l-46 7 0 93 0 92 79 5 c137 8 201 61 201 167 0 76 -23 119 -80 148
-41 20 -62 23 -218 25 -172 3 -172 3 -172 -19z m277 -52 c51 -23 63 -45 63
-109 0 -43 -4 -54 -29 -75 -30 -25 -93 -43 -111 -32 -6 4 -10 56 -10 121 0
112 0 114 23 114 12 0 41 -9 64 -19z"/>
<path d="M2684 2471 c-2 -2 -4 -12 -4 -22 0 -12 11 -21 33 -27 l32 -8 3 -236
2 -236 -35 -6 c-30 -6 -36 -11 -33 -29 3 -21 7 -22 128 -22 75 -1 128 3 132
10 16 22 6 34 -32 40 l-40 7 0 116 c0 70 4 112 9 107 5 -6 50 -70 100 -144
l91 -134 82 -1 c77 0 83 1 86 21 2 15 -4 23 -20 28 -35 11 -63 40 -155 163
l-85 113 32 37 c71 81 161 172 173 172 23 0 39 18 33 36 -5 17 -16 19 -103 17
-90 -1 -98 -3 -101 -22 -3 -16 4 -21 32 -27 l36 -6 -62 -70 c-35 -39 -82 -91
-105 -117 l-42 -46 -1 118 0 117 28 0 c36 0 54 13 46 33 -5 13 -27 16 -131 19
-68 2 -127 1 -129 -1z"/>
<path d="M3294 2471 c-2 -2 -4 -12 -4 -22 0 -13 10 -20 35 -25 l35 -6 0 -238
0 -238 -36 -6 c-29 -6 -35 -11 -32 -29 3 -22 5 -22 175 -20 147 2 179 5 217
22 108 47 116 209 14 271 -18 11 -42 20 -53 20 -16 0 -14 4 12 20 47 28 68 66
66 118 -2 49 -21 84 -60 109 -22 15 -57 19 -196 23 -93 3 -171 3 -173 1z m266
-66 c37 -19 50 -43 50 -90 0 -50 -44 -95 -94 -95 l-36 0 0 100 0 100 25 0 c15
0 39 -7 55 -15z m26 -250 c56 -23 79 -97 49 -155 -19 -37 -63 -60 -115 -60
l-40 0 0 115 0 115 35 0 c20 0 51 -7 71 -15z"/>
<path d="M4020 2458 c-5 -13 -46 -126 -89 -253 -72 -206 -84 -233 -116 -261
-55 -49 -42 -61 68 -59 85 1 92 3 95 22 2 16 -4 22 -27 26 -35 7 -36 13 -12
82 l18 50 94 3 95 3 17 -54 c23 -72 22 -74 -17 -81 -29 -6 -33 -10 -28 -31 l4
-25 124 0 124 0 0 25 c0 20 -6 27 -28 31 -27 6 -33 17 -123 272 l-94 267 -48
3 c-41 3 -48 0 -57 -20z m64 -201 c16 -50 31 -100 34 -109 4 -16 -4 -18 -68
-18 -64 0 -72 2 -68 18 19 69 64 202 68 202 3 0 18 -42 34 -93z"/>
<path d="M4610 2453 c0 -16 10 -27 34 -37 26 -11 50 -40 110 -135 l77 -122
-69 -87 c-80 -100 -108 -127 -139 -137 -16 -4 -23 -14 -23 -31 l0 -26 103 3
c59 1 105 7 109 13 16 23 6 36 -32 42 -41 7 -41 7 -22 28 10 11 40 52 67 89
l48 68 22 -40 c13 -21 37 -60 54 -84 17 -25 31 -48 31 -50 0 -2 -14 -7 -31
-11 -25 -5 -30 -10 -27 -28 3 -22 6 -23 128 -23 120 0 125 1 128 21 2 16 -4
23 -21 28 -25 6 -75 68 -166 204 l-42 63 56 78 c66 92 109 138 136 146 11 4
19 15 19 28 0 21 -4 22 -98 22 -93 0 -97 -1 -100 -23 -3 -18 2 -23 28 -28 37
-8 37 -8 -28 -102 l-50 -73 -47 72 c-61 95 -61 95 -26 102 24 5 31 12 31 29 0
23 -1 23 -130 23 -128 0 -130 0 -130 -22z"/>
<path d="M5240 2454 c0 -23 17 -34 51 -34 18 0 19 -10 19 -239 l0 -239 -36 -6
c-29 -6 -35 -11 -32 -29 3 -21 7 -22 136 -24 l132 -2 0 24 c0 19 -7 24 -40 30
l-40 7 0 93 0 92 78 5 c129 8 191 53 200 148 6 63 -12 112 -53 149 -42 37 -61
40 -258 43 -155 3 -157 3 -157 -18z m270 -50 c47 -19 70 -55 70 -111 0 -64
-31 -95 -107 -108 l-43 -7 0 121 c0 137 0 137 80 105z"/>
<path d="M5770 2453 c0 -17 8 -25 30 -30 17 -4 30 -11 30 -15 0 -5 0 -111 0
-237 l0 -229 -31 -7 c-24 -5 -29 -11 -27 -28 3 -21 9 -22 124 -25 116 -3 122
-2 127 18 4 16 -1 23 -19 31 -14 5 -32 9 -40 9 -10 0 -14 12 -14 38 0 34 10
47 122 160 67 67 123 122 125 122 2 0 3 -71 3 -159 l0 -159 -35 -6 c-29 -6
-35 -11 -35 -32 l0 -25 123 3 c116 3 122 4 125 25 2 17 -3 23 -27 28 l-31 7 0
229 c0 126 0 232 -1 236 0 4 14 11 30 16 23 5 31 13 31 30 0 22 -3 22 -125 22
-122 0 -125 0 -125 -22 0 -17 8 -25 33 -31 25 -6 33 -14 35 -36 3 -23 -14 -45
-112 -147 -64 -66 -116 -124 -116 -129 0 -6 -4 -10 -10 -10 -6 0 -10 60 -10
159 l0 160 28 3 c20 2 28 9 30 28 l3 25 -121 0 c-117 0 -120 0 -120 -22z"/>
<path d="M6952 2462 c-9 -24 7 -145 20 -154 22 -14 26 -9 49 52 l22 60 48 0
49 0 0 -239 0 -239 -36 -6 c-29 -6 -35 -11 -32 -29 3 -21 7 -22 128 -22 121 0
125 1 128 22 3 18 -3 23 -32 29 l-36 6 0 239 0 239 49 0 48 0 22 -61 c17 -45
26 -59 38 -55 8 3 17 6 19 6 2 0 4 37 4 83 l0 82 -241 0 c-192 0 -243 -3 -247
-13z"/>
<path d="M7656 2464 c-131 -48 -203 -191 -177 -353 26 -162 107 -232 270 -232
90 0 158 28 211 88 53 61 70 116 70 232 0 80 -4 105 -24 147 -27 58 -80 106
-135 123 -52 15 -167 13 -215 -5z m138 -58 c71 -30 110 -115 110 -246 0 -100
-13 -146 -55 -186 -26 -25 -38 -29 -86 -29 -53 0 -57 2 -93 43 -30 33 -42 59
-54 112 -19 82 -19 94 -5 177 13 74 44 118 92 132 45 13 54 13 91 -3z"/>
<path d="M8090 2453 c0 -17 8 -25 33 -31 l32 -8 3 -236 2 -236 -35 -6 c-30 -6
-36 -11 -33 -29 3 -22 5 -22 176 -20 147 2 181 6 218 22 57 26 84 69 84 139 0
83 -25 119 -105 148 l-30 11 29 14 c88 43 83 196 -7 234 -21 9 -90 14 -200 17
-167 3 -167 3 -167 -19z m270 -48 c46 -24 61 -69 44 -133 -8 -27 -52 -52 -94
-52 l-30 0 0 100 0 100 25 0 c15 0 39 -7 55 -15z m30 -253 c45 -22 62 -56 57
-111 -7 -63 -40 -93 -111 -99 l-56 -4 0 116 0 116 38 0 c20 0 53 -8 72 -18z"/>
<path d="M8825 2468 c-2 -7 -41 -116 -86 -243 -87 -248 -97 -270 -135 -287
-15 -7 -24 -20 -24 -34 0 -22 3 -22 98 -21 91 2 97 3 100 24 3 17 -3 23 -28
28 -23 5 -31 11 -27 23 3 10 11 38 18 65 l13 47 96 0 96 0 13 -47 c7 -27 15
-55 18 -64 3 -12 -5 -18 -32 -23 -30 -6 -36 -11 -33 -29 3 -21 7 -22 128 -22
120 1 125 1 128 22 2 16 -3 23 -26 28 -31 6 -43 36 -196 480 l-21 60 -48 3
c-32 2 -49 -1 -52 -10z m59 -211 c16 -50 31 -100 34 -109 4 -16 -4 -18 -68
-18 -64 0 -72 2 -68 18 19 69 64 202 68 202 3 0 18 -42 34 -93z"/>
<path d="M4596 1588 c-9 -12 -16 -26 -16 -30 0 -14 39 -48 55 -48 17 0 55 35
55 50 0 17 -39 50 -59 50 -11 0 -27 -10 -35 -22z"/>
<path d="M4160 1551 c0 -10 9 -21 20 -24 19 -5 20 -14 20 -175 0 -162 -1 -171
-20 -177 -11 -3 -20 -14 -20 -23 0 -15 13 -17 126 -14 141 3 174 14 199 62 32
62 3 146 -56 165 -19 6 -19 7 5 26 50 39 45 127 -7 160 -27 16 -51 19 -149 19
-109 0 -118 -1 -118 -19z m194 -42 c49 -39 24 -119 -37 -119 l-32 0 0 70 c0
65 2 70 21 70 12 0 33 -9 48 -21z m-13 -169 c30 0 69 -44 69 -78 0 -44 -28
-72 -77 -79 l-41 -5 -4 82 c-3 87 -2 94 20 85 7 -3 22 -5 33 -5z"/>
<path d="M3412 1431 c-3 -8 2 -19 11 -26 24 -17 25 -220 2 -229 -8 -3 -15 -13
-15 -23 0 -15 9 -18 55 -19 48 -2 55 0 55 17 0 11 -7 22 -15 25 -12 5 -15 26
-15 108 l0 101 26 -70 c14 -38 32 -89 41 -112 13 -39 18 -43 47 -43 31 0 33 2
55 72 13 39 31 89 40 112 l17 40 0 -102 c-1 -56 -4 -102 -8 -102 -13 0 -38
-32 -33 -41 4 -5 40 -9 81 -9 68 0 74 2 74 21 0 12 -8 23 -20 26 -18 5 -20 14
-20 113 0 99 2 108 20 113 11 3 20 12 20 22 0 13 -11 15 -71 13 l-71 -3 -32
-87 c-17 -47 -34 -89 -37 -92 -3 -4 -22 37 -41 90 l-34 96 -63 2 c-46 1 -65
-3 -69 -13z"/>
<path d="M6544 1441 c-69 -30 -70 -130 -2 -162 l30 -15 -56 -52 c-68 -65 -71
-79 -13 -76 36 1 46 7 70 40 34 47 68 84 77 84 12 0 -2 -75 -17 -87 -29 -23
-9 -34 65 -36 63 -2 72 0 72 16 0 10 -7 20 -15 23 -12 5 -15 27 -15 114 0 99
2 108 20 113 11 3 20 12 20 21 0 12 -11 16 -49 16 -26 0 -75 2 -107 5 -32 3
-69 1 -80 -4z m104 -89 c3 -47 1 -52 -17 -52 -24 0 -61 33 -61 55 0 22 38 57
58 53 13 -2 18 -16 20 -56z"/>
<path d="M4567 1433 c-13 -12 -7 -33 8 -33 12 0 15 -19 15 -110 0 -89 -3 -112
-15 -116 -8 -4 -15 -14 -15 -23 0 -13 12 -16 75 -16 63 0 75 3 75 16 0 9 -7
19 -15 23 -12 4 -15 29 -15 136 l0 130 -53 0 c-30 0 -57 -3 -60 -7z"/>
<path d="M4770 1421 c0 -10 8 -21 19 -24 17 -4 19 -16 20 -109 2 -98 0 -106
-19 -111 -11 -3 -20 -13 -20 -24 0 -16 10 -18 80 -20 73 -2 80 -1 80 17 0 10
-9 22 -20 25 -16 5 -20 15 -20 51 l0 44 60 0 60 0 0 -44 c0 -30 -5 -46 -15
-50 -8 -3 -15 -13 -15 -23 0 -16 10 -18 75 -18 64 0 75 3 75 17 0 9 -9 20 -20
23 -18 6 -20 15 -20 115 0 99 2 108 20 113 11 3 20 12 20 21 0 13 -13 16 -80
16 -67 0 -80 -3 -80 -16 0 -9 9 -18 20 -21 16 -4 20 -14 20 -49 l0 -44 -60 0
-60 0 0 44 c0 35 4 45 20 49 11 3 20 12 20 21 0 13 -13 16 -80 16 -72 0 -80
-2 -80 -19z"/>
<path d="M5195 1430 c-8 -14 3 -30 21 -30 11 0 14 -21 14 -109 0 -102 -1 -110
-21 -116 -11 -4 -19 -14 -17 -22 2 -13 20 -17 81 -19 70 -3 77 -1 77 16 0 10
-9 22 -20 25 -16 5 -20 15 -20 51 l0 44 60 0 60 0 0 -50 c0 -39 -4 -50 -16
-50 -9 0 -14 -7 -12 -17 3 -15 15 -18 78 -18 63 0 75 3 78 17 2 11 -5 19 -20
23 -23 6 -23 8 -20 113 3 79 8 109 18 115 8 4 14 15 14 22 0 12 -16 15 -75 15
-68 0 -75 -2 -75 -20 0 -11 7 -20 15 -20 11 0 15 -12 15 -45 l0 -45 -60 0 -60
0 0 44 c0 35 4 45 20 49 11 3 20 12 20 21 0 13 -13 16 -74 16 -41 0 -78 -4
-81 -10z"/>
<path d="M5620 1420 c0 -11 7 -20 15 -20 12 0 15 -19 15 -109 0 -102 -1 -110
-21 -116 -12 -4 -19 -14 -17 -23 3 -14 18 -17 81 -19 72 -3 77 -2 77 18 0 12
-8 23 -20 26 -35 9 -22 36 40 86 32 26 62 47 65 47 3 0 5 -29 5 -64 0 -55 -3
-66 -19 -71 -11 -3 -18 -13 -17 -22 2 -12 17 -16 79 -17 66 -1 77 1 77 16 0 9
-9 20 -20 23 -18 6 -20 15 -20 116 0 102 1 109 20 109 13 0 20 7 20 20 0 18
-7 20 -74 20 -58 0 -75 -3 -80 -16 -4 -11 1 -18 14 -21 35 -9 22 -36 -40 -85
-32 -27 -62 -48 -65 -48 -3 0 -5 29 -5 65 0 58 2 65 20 65 13 0 20 7 20 20 0
18 -7 20 -75 20 -68 0 -75 -2 -75 -20z"/>
<path d="M6040 1424 c0 -9 9 -18 20 -21 18 -5 20 -14 20 -113 0 -100 -2 -109
-20 -115 -11 -3 -20 -14 -20 -23 0 -15 16 -17 152 -17 l152 0 13 -25 c6 -14
14 -33 17 -42 3 -11 11 -15 21 -12 11 5 15 21 15 60 0 47 -2 54 -20 54 -19 0
-20 7 -20 115 0 96 3 115 15 115 8 0 15 9 15 20 0 18 -7 20 -74 20 -58 0 -75
-3 -80 -16 -4 -11 1 -18 14 -21 19 -5 20 -14 20 -119 l0 -114 -60 0 -60 0 0
114 c0 105 1 114 20 119 11 3 20 12 20 21 0 13 -13 16 -80 16 -67 0 -80 -3
-80 -16z"/>
<path d="M3895 1206 c-30 -46 24 -93 74 -66 24 12 29 58 9 78 -21 21 -66 14
-83 -12z"/>
</g>
</svg>
