<?xml version="1.0" encoding="utf-8"?>
<!-- Generator: Adobe Illustrator 27.5.0, SVG Export Plug-In . SVG Version: 6.00 Build 0)  -->
<svg version="1.1" xmlns="http://www.w3.org/2000/svg" xmlns:xlink="http://www.w3.org/1999/xlink" x="0px" y="0px"
	 viewBox="0 0 500 500" style="enable-background:new 0 0 500 500;" xml:space="preserve">
<g id="Background_Complete">
	<g>
		<rect y="382.398" style="fill:#EBEBEB;" width="500" height="0.25"/>
		<g>
			<rect x="384" y="396.814" style="fill:#EBEBEB;" width="59.889" height="0.25"/>
			<rect x="286.333" y="391.403" style="fill:#EBEBEB;" width="52.57" height="0.25"/>
			<rect x="362.237" y="396.689" style="fill:#EBEBEB;" width="16.348" height="0.25"/>
			<rect x="56.111" y="391.278" style="fill:#EBEBEB;" width="48.667" height="0.25"/>
			<rect x="109.224" y="391.278" style="fill:#EBEBEB;" width="10.428" height="0.25"/>
			<rect x="168.681" y="393.431" style="fill:#EBEBEB;" width="33.652" height="0.25"/>
		</g>
		<path style="fill:#EBEBEB;" d="M237.014,337.8H43.915c-3.147,0-5.708-2.561-5.708-5.708V60.66c0-3.147,2.561-5.708,5.708-5.708
			h193.099c3.146,0,5.707,2.561,5.707,5.708v271.432C242.721,335.239,240.16,337.8,237.014,337.8z M43.915,55.203
			c-3.01,0-5.458,2.448-5.458,5.458v271.432c0,3.01,2.448,5.458,5.458,5.458h193.099c3.009,0,5.457-2.448,5.457-5.458V60.66
			c0-3.009-2.448-5.458-5.457-5.458H43.915z"/>
		<path style="fill:#EBEBEB;" d="M453.31,337.8H260.212c-3.147,0-5.707-2.561-5.707-5.708V60.66c0-3.147,2.561-5.708,5.707-5.708
			H453.31c3.148,0,5.708,2.561,5.708,5.708v271.432C459.019,335.239,456.458,337.8,453.31,337.8z M260.212,55.203
			c-3.009,0-5.457,2.448-5.457,5.458v271.432c0,3.01,2.448,5.458,5.457,5.458H453.31c3.01,0,5.458-2.448,5.458-5.458V60.66
			c0-3.009-2.448-5.458-5.458-5.458H260.212z"/>
	</g>
	<g>
		<path style="fill:#F0F0F0;" d="M250,196.249c-85.406,0-154.641,69.235-154.641,154.641h309.281
			C404.641,265.484,335.406,196.249,250,196.249z"/>
		<path style="fill:#F5F5F5;" d="M483.228,382.398c-20.101,0-368.649,0-368.649,0s39.166-26.037,77.424-49.148
			c38.258-23.111,59.983-22.877,82.552-6.186c22.569,16.691,68.482,2.691,104.03-4.398
			C447.042,309.015,450.543,366.694,483.228,382.398z"/>
		<path style="fill:#EBEBEB;" d="M18.283,382.398c-3.556,0,394.669,0,394.669,0s-23.333-0.083-69.667-23.194
			c-46.333-23.111-65-20.543-92.333-3.852C223.619,372.043,185.281,334.46,122,328.667
			C48.626,321.949,52.783,382.398,18.283,382.398z"/>
		<path style="fill:#F0F0F0;" d="M409.294,78.204c-11.74,1.389-12.866,2.516-14.256,14.256c-1.389-11.74-2.516-12.866-14.256-14.256
			c11.74-1.389,12.866-2.516,14.256-14.256C396.428,75.688,397.554,76.815,409.294,78.204z"/>
		<path style="fill:#F0F0F0;" d="M78.5,163.085c-7.668,0.908-8.404,1.643-9.311,9.311c-0.908-7.668-1.643-8.404-9.311-9.311
			c7.668-0.908,8.404-1.643,9.311-9.311C70.096,161.442,70.832,162.178,78.5,163.085z"/>
		<path style="fill:#EBEBEB;" d="M437.444,207.764c-8.023,0.949-8.792,1.719-9.742,9.742c-0.949-8.023-1.719-8.792-9.742-9.742
			c8.023-0.949,8.792-1.719,9.742-9.742C428.652,206.045,429.422,206.815,437.444,207.764z"/>
		<path style="fill:#F0F0F0;" d="M161.283,38.556c-6.522,0.772-7.147,1.397-7.919,7.919c-0.772-6.522-1.397-7.147-7.919-7.919
			c6.522-0.772,7.147-1.397,7.919-7.919C154.135,37.158,154.761,37.784,161.283,38.556z"/>
		<path style="fill:#EBEBEB;" d="M95.664,84.018c-4.217-1.9-9.154,0.035-10.968,4.268c-4.233-1.814-9.142,0.189-10.887,4.473
			c-1.712,4.205,0.468,9.004,4.641,10.792l11.565,4.957c1.845,0.791,3.982-0.064,4.773-1.909l4.957-11.565
			C101.534,90.862,99.804,85.883,95.664,84.018z"/>
		<path style="fill:#F0F0F0;" d="M443.884,122.181c-1.229-3.823-5.349-5.88-9.133-4.586c-1.293-3.784-5.441-5.783-9.217-4.415
			c-3.706,1.343-5.531,5.54-4.256,9.271l3.534,10.339c0.564,1.649,2.358,2.529,4.007,1.966l10.339-3.534
			C442.888,129.946,445.091,125.934,443.884,122.181z"/>
		<path style="fill:#EBEBEB;" d="M338.923,48.111c0,1.474-1.195,2.669-2.669,2.669c-1.474,0-2.669-1.195-2.669-2.669
			c0-1.474,1.195-2.669,2.669-2.669C337.728,45.442,338.923,46.637,338.923,48.111z"/>
		<path style="fill:#F0F0F0;" d="M328.723,78.204c0,1.474-1.195,2.669-2.669,2.669c-1.474,0-2.669-1.195-2.669-2.669
			c0-1.474,1.195-2.669,2.669-2.669C327.528,75.535,328.723,76.73,328.723,78.204z"/>
		<path style="fill:#F0F0F0;" d="M86.114,243.406c0,1.474-1.195,2.669-2.669,2.669c-1.474,0-2.669-1.195-2.669-2.669
			c0-1.474,1.195-2.669,2.669-2.669C84.919,240.737,86.114,241.932,86.114,243.406z"/>
		<path style="fill:#F0F0F0;" d="M428.778,256.508c0,1.474-1.195,2.669-2.669,2.669c-1.474,0-2.669-1.195-2.669-2.669
			c0-1.474,1.195-2.669,2.669-2.669C427.583,253.838,428.778,255.034,428.778,256.508z"/>
	</g>
</g>
<g id="Background_Simple" style="display:none;">
	<g style="display:inline;">
		<path style="fill:#407BFF;" d="M207.335,398.888C89.169,389.464,39.1,225.141,133.638,181.894
			c29.401-13.45,68.132,12.25,99.453-5.029c31.938-17.62,39.581-65.272,70.069-85.792c71.076-47.837,150.018,31.954,152.335,127.456
			C458.099,325.791,291.974,405.639,207.335,398.888z"/>
		<path style="opacity:0.9;fill:#FFFFFF;" d="M207.335,398.888C89.169,389.464,39.1,225.141,133.638,181.894
			c29.401-13.45,68.132,12.25,99.453-5.029c31.938-17.62,39.581-65.272,70.069-85.792c71.076-47.837,150.018,31.954,152.335,127.456
			C458.099,325.791,291.974,405.639,207.335,398.888z"/>
	</g>
</g>
<g id="Shadow_1_">
	<ellipse id="_x3C_Path_x3E__39_" style="fill:#F5F5F5;" cx="250" cy="416.238" rx="193.889" ry="11.323"/>
</g>
<g id="Sky">
	<g>
		
			<ellipse transform="matrix(0.9987 -0.051 0.051 0.9987 -8.7056 13.0051)" style="fill:#407BFF;" cx="250.602" cy="177.169" rx="165.766" ry="125.941"/>
		
			<ellipse transform="matrix(0.9987 -0.051 0.051 0.9987 -8.7056 13.0051)" style="opacity:0.6;fill:#FFFFFF;" cx="250.602" cy="177.169" rx="165.766" ry="125.941"/>
		<path style="opacity:0.2;fill:#407BFF;" d="M407.866,213.492l-65.994-4.847l71.361-10.807c1.768-6.942,2.786-14.062,3.003-21.306
			l-76.031,25.144l74.588-45.015c-1.396-7.88-3.749-15.497-6.965-22.786l-71.83,62.001l60.356-81.899
			c-4.996-6.908-10.833-13.39-17.412-19.373l-49.05,97.524l28.035-113.384c-8.017-5.021-16.687-9.454-25.896-13.224l-9.216,125.482
			L302.395,56.163c-10.673-2.451-21.811-4.09-33.287-4.823l46.739,141.329L231.085,52.223c-13.586,1.493-26.644,4.218-38.986,8.008
			l117.947,136.645L149.951,78.893c-13.293,8.003-24.982,17.46-34.663,28.02l191.01,96.069L89.739,149.436
			c-3.804,11.503-5.561,23.56-4.942,35.919c0.145,2.891,0.428,5.75,0.823,8.58l219.551,16.124L104.81,240.402
			c8.881,12.207,20.405,23.077,33.978,32.202l168.051-55.577l-125.921,75.995c12.225,4.047,25.239,6.972,38.814,8.624l91.314-78.819
			l-59.173,80.294c1.634-0.045,3.272-0.104,4.917-0.186c7.884-0.395,15.615-1.211,23.165-2.401l37.198-73.959l-17.268,69.835
			c6.786-1.751,13.38-3.817,19.751-6.177l4.592-62.531l8.642,57.066c5.245-2.399,10.311-5.001,15.171-7.798l-16.845-50.935
			l26.947,44.65c4.482-3.009,8.75-6.194,12.796-9.533l-33.943-39.323l42.729,31.489c4.067-3.932,7.839-8.042,11.298-12.308
			l-50.278-25.287l58.199,14.39C402.408,224.758,405.392,219.206,407.866,213.492z"/>
	</g>
	<g>
		<path style="fill:#FFFFFF;" d="M374.655,133.434l-0.1,0.073c7.87-12.946-19.894-10.675-36.995,13.279
			c-1.302-11.114-26.476,7.139-29.483,18.337l75.57-9.549c8.828-1.115,13.223-11.245,8.064-18.495
			c-0.227-0.319-0.456-0.638-0.687-0.955C387.211,130.892,379.885,129.619,374.655,133.434z"/>
		<path style="fill:#FFFFFF;" d="M169.293,157.503c2.974-7.5,0.652-13.75-19.297,0.812c5.324-8.16-5.044-4.98-14.974,2.037
			c-2.088-1.197-7.091-0.503-15.521,5.651c5.876-9.006-15.487,1.67-20.053,11.553l67.741-8.56
			C167.188,168.995,183.516,160.606,169.293,157.503z"/>
		<path style="fill:#FFFFFF;" d="M213.385,218.424c4.614-6.397-3.585-15.1-28.795,3.301c6.728-10.312-6.373-6.294-18.923,2.574
			c-2.639-1.512-8.961-0.635-19.614,7.141c7.426-11.381-19.57,2.11-25.341,14.599l85.603-10.817
			C206.315,235.221,233.374,212.819,213.385,218.424z"/>
	</g>
</g>
<g id="Character_1_">
	<g>
		<g>
			<path style="fill:#FFB573;" d="M285.146,205.427c0.695,2.102,1.582,4.489,2.527,6.853c0.969,2.369,1.966,4.783,3.057,7.16
				c2.139,4.778,4.529,9.471,7.027,13.963c1.259,2.24,2.572,4.419,3.935,6.485c1.337,2.083,2.727,4.065,4.145,5.852
				c1.406,1.788,2.885,3.357,4.187,4.582c1.296,1.231,2.505,1.982,2.886,2.213l-2.378-0.46c-0.95-0.078-1.983,0.059-2.851,0.331
				c-0.833,0.235-1.516,0.648-1.893,0.91c-0.82,0.626-0.79,0.827-0.658,0.77c0.351-0.157,1.209-1.305,1.964-2.609
				c0.766-1.345,1.558-2.929,2.302-4.612c0.752-1.681,1.434-3.477,2.127-5.307c0.703-1.829,1.369-3.712,2.006-5.623
				c0.645-1.91,1.307-3.842,1.917-5.799l3.73-11.789l0.061-0.192c1.169-3.694,5.112-5.742,8.806-4.572
				c2.816,0.891,4.674,3.41,4.882,6.185c0.329,4.574,0.32,8.903,0.171,13.378c-0.102,2.22-0.214,4.454-0.414,6.695
				c-0.212,2.24-0.464,4.494-0.783,6.777c-0.33,2.281-0.763,4.575-1.288,6.934c-0.525,2.358-1.163,4.769-2.089,7.309
				c-0.958,2.563-2.045,5.222-4.32,8.399c-1.193,1.585-2.646,3.348-5.275,5.089c-1.263,0.847-2.937,1.664-4.781,2.202
				c-1.894,0.546-3.994,0.751-6.001,0.602c-0.653-0.048-1.287-0.158-1.896-0.324l-0.482-0.136c-5.11-1.425-8.834-3.772-11.99-6.096
				c-3.16-2.351-5.7-4.879-8.045-7.399c-2.327-2.532-4.404-5.103-6.346-7.699c-1.917-2.614-3.682-5.255-5.356-7.92
				c-1.682-2.66-3.242-5.357-4.706-8.094c-1.464-2.736-2.885-5.483-4.174-8.301c-1.293-2.817-2.552-5.656-3.675-8.606
				c-1.14-2.956-2.198-5.949-3.117-9.33c-2.021-7.437,2.37-15.103,9.806-17.124c7.179-1.951,14.573,2.074,16.894,9.045
				L285.146,205.427z"/>
			<path style="opacity:0.1;" d="M285.146,205.427c0.695,2.102,1.582,4.489,2.527,6.853c0.969,2.369,1.966,4.783,3.057,7.16
				c2.139,4.778,4.529,9.471,7.027,13.963c1.259,2.24,2.572,4.419,3.935,6.485c1.337,2.083,2.727,4.065,4.145,5.852
				c1.406,1.788,2.885,3.357,4.187,4.582c1.296,1.231,2.505,1.982,2.886,2.213l-2.378-0.46c-0.95-0.078-1.983,0.059-2.851,0.331
				c-0.833,0.235-1.516,0.648-1.893,0.91c-0.82,0.626-0.79,0.827-0.658,0.77c0.351-0.157,1.209-1.305,1.964-2.609
				c0.766-1.345,1.558-2.929,2.302-4.612c0.752-1.681,1.434-3.477,2.127-5.307c0.703-1.829,1.369-3.712,2.006-5.623
				c0.645-1.91,1.307-3.842,1.917-5.799l3.73-11.789l0.061-0.192c1.169-3.694,5.112-5.742,8.806-4.572
				c2.816,0.891,4.674,3.41,4.882,6.185c0.329,4.574,0.32,8.903,0.171,13.378c-0.102,2.22-0.214,4.454-0.414,6.695
				c-0.212,2.24-0.464,4.494-0.783,6.777c-0.33,2.281-0.763,4.575-1.288,6.934c-0.525,2.358-1.163,4.769-2.089,7.309
				c-0.958,2.563-2.045,5.222-4.32,8.399c-1.193,1.585-2.646,3.348-5.275,5.089c-1.263,0.847-2.937,1.664-4.781,2.202
				c-1.894,0.546-3.994,0.751-6.001,0.602c-0.653-0.048-1.287-0.158-1.896-0.324l-0.482-0.136c-5.11-1.425-8.834-3.772-11.99-6.096
				c-3.16-2.351-5.7-4.879-8.045-7.399c-2.327-2.532-4.404-5.103-6.346-7.699c-1.917-2.614-3.682-5.255-5.356-7.92
				c-1.682-2.66-3.242-5.357-4.706-8.094c-1.464-2.736-2.885-5.483-4.174-8.301c-1.293-2.817-2.552-5.656-3.675-8.606
				c-1.14-2.956-2.198-5.949-3.117-9.33c-2.021-7.437,2.37-15.103,9.806-17.124c7.179-1.951,14.573,2.074,16.894,9.045
				L285.146,205.427z"/>
		</g>
		<g>
			<path style="fill:#FFB573;" d="M333.703,196.723l-6.349-2.481c-2.893-1.131-6.15,0.337-7.22,3.254l-3.469,9.46l1.255,15.941
				l9.108,3.468c7.795-0.924,8.411-15.496,8.411-15.496l1.666-7.831C337.671,200.384,336.23,197.711,333.703,196.723z"/>
			<path style="opacity:0.1;" d="M333.703,196.723l-6.349-2.481c-2.893-1.131-6.15,0.337-7.22,3.254l-3.469,9.46l1.255,15.941
				l9.108,3.468c7.795-0.924,8.411-15.496,8.411-15.496l1.666-7.831C337.671,200.384,336.23,197.711,333.703,196.723z"/>
		</g>
		<g>
			<path style="fill:#407BFF;" d="M256.912,204.359c7.434-15.848,29.343-15.943,47.617,19.978
				c-5.579,18.232-30.376,32.171-30.376,32.171S247.975,223.41,256.912,204.359z"/>
			<path style="opacity:0.3;" d="M256.912,204.359c7.434-15.848,29.343-15.943,47.617,19.978
				c-5.579,18.232-30.376,32.171-30.376,32.171S247.975,223.41,256.912,204.359z"/>
		</g>
		<g>
			<g>
				<path style="fill:#263238;" d="M367.807,387c-2.401-20.075-77.875-58.872-77.875-58.872l-62.89-3.039
					c-13.279,34.272-2.84,49.508,11.551,54.175c-12.297,1.971-23.11,5.157-30.471,7.691c-8.281,2.851-11.737,13.057-6.341,19.955
					c1.618,2.069,3.645,3.54,5.922,4.163C207.703,411.073,374.435,442.402,367.807,387z"/>
				<path style="opacity:0.4;" d="M367.807,387c-2.401-20.075-77.875-58.872-77.875-58.872l-62.89-3.039
					c-13.279,34.272-2.84,49.508,11.551,54.175c-12.297,1.971-23.11,5.157-30.471,7.691c-8.281,2.851-11.737,13.057-6.341,19.955
					c1.618,2.069,3.645,3.54,5.922,4.163C207.703,411.073,374.435,442.402,367.807,387z"/>
			</g>
			<path style="fill:#407BFF;" d="M179.039,408.647l6.824-14.608c0.474-0.575,0.452-1.363-0.054-1.896l-10.535-10.78
				c-3.981-3.065-9.663-2.206-12.635,1.844c-3.25,4.43-5.016,9.137-10.258,13.167c-8.366,6.432-5.494,3.833-17.559,6.587
				c-7.295,1.665-6.898,9.358-3.625,9.316c14.9-0.191,28.368-0.068,43.381-1.997C176.21,410.07,177.792,409.606,179.039,408.647z"/>
			<path style="fill:#263238;" d="M340.435,391.153c-2.401-20.075-88.178-58.755-88.178-58.755l-58.285-7.309
				c-13.279,34.272-2.84,49.508,11.551,54.175c-12.297,1.971-23.11,5.157-30.471,7.691c-8.281,2.851-8.383,11.019-6.87,18.408
				c0.867,4.231,4.173,5.087,6.451,5.71C174.632,411.073,347.063,446.555,340.435,391.153z"/>
			<path style="opacity:0.1;fill:#FFFFFF;" d="M242.189,403.711c-32.09,0-59.676-4.025-60.131-4.093
				c-0.227-0.034-0.384-0.245-0.35-0.472c0.034-0.228,0.249-0.387,0.472-0.35c0.742,0.11,73.67,10.75,120.394-2.748
				c-22.677-3.453-100.414-25.207-97.918-48.874c0.024-0.228,0.23-0.396,0.456-0.37c0.228,0.024,0.394,0.229,0.37,0.457
				c-1.326,12.58,21.39,24.274,40.679,31.87c23.22,9.142,48.586,15.164,58.418,16.356c0.195,0.023,0.347,0.18,0.364,0.375
				c0.017,0.195-0.105,0.376-0.292,0.434C286.135,401.985,263.195,403.711,242.189,403.711z"/>
		</g>
		<g>
			<path style="fill:#407BFF;" d="M276.254,194.79c-18.434-4.484-28.146-5.678-40.186-6.212
				c-24.393-1.082-43.915,19.797-41.369,44.08c5.356,51.086-1.855,82.725-2.696,94.12c34.615,22.724,89.61,13.441,98.871,4.14
				c10.216-41.948,6.861-88.272,5.191-108.548C295.16,211.401,287.725,197.58,276.254,194.79z"/>
			<path style="opacity:0.2;" d="M276.254,194.79c-18.434-4.484-28.146-5.678-40.186-6.212
				c-24.393-1.082-43.915,19.797-41.369,44.08c5.356,51.086-1.855,82.725-2.696,94.12c34.615,22.724,89.61,13.441,98.871,4.14
				c10.216-41.948,6.861-88.272,5.191-108.548C295.16,211.401,287.725,197.58,276.254,194.79z"/>
		</g>
		<path style="opacity:0.3;fill:#263238;" d="M270.07,333.666c-0.017,0-0.032-0.001-0.049-0.003
			c-0.229-0.027-0.392-0.233-0.364-0.46c4.506-38.676,7.001-103.357-0.273-119.14c-0.097-0.208-0.005-0.455,0.203-0.551
			c0.208-0.098,0.453-0.005,0.551,0.203c8.054,17.472,4.198,86.506,0.344,119.583C270.457,333.51,270.277,333.666,270.07,333.666z"
			/>
		<path style="fill:#FFB573;" d="M236.508,159.315c1.014,17.727-1.23,24.611-4.224,33.161c1.831,6.877,18.85,14.865,34.21,16.862
			c5.529-5.846,4.701-11.644,3.289-14.261c-4.48-1.737-8.725-7.152-5.442-15.194L236.508,159.315z"/>
		<path style="opacity:0.2;" d="M255.432,172.546l-0.011-0.011l-5.892-2.392c-0.055,1.44,0.016,4.287,1.253,6.892
			c1.656,3.54,8.091,7.106,12.425,7.505c0.089-1.439,0.454-2.99,1.129-4.662L255.432,172.546z"/>
		<path style="fill:#263238;" d="M269.09,114.605c13.6,6.79,14.621,13.943,9.75,21.381
			C261.994,126.92,269.09,114.605,269.09,114.605z"/>
		<path style="fill:#FFB573;" d="M230.58,145.02c6.075,16.553,8.79,26.558,19.886,32.593c16.691,9.078,35.18-5.065,34.169-23.147
			c-0.91-16.276-10.691-40.611-29.188-42.238C237.222,110.626,224.505,128.467,230.58,145.02z"/>
		<path style="fill:#263238;" d="M284.674,104.365c-1.445,2.258-3.456,3.711-5.559,4.644c-0.989-6.853-13.029-17.342-34.178-17.342
			c2.688,1.405,4.514,2.644,5.771,3.678c-5.461,1.7-5.731,6.935-5.731,6.935s-21.381,2.307-27.13,15.285
			c-1.069-2.867-2.015-6.648-1.274-9.932c-2.707,2.482-6.236,14.924-1.686,20.652c-9.017,3.46-3.805,11.702-3.805,11.702
			s0.17-3.006,0.816-3.652c2.492,3.046,0.831,13.936,8.86,17.443c-2.492,9.783,17.535,17.72,17.996,10.613
			c0.462-7.106,0.486-11.085,0.486-11.085c1.901-0.229,5.745-2.446,5.698-3.097c-0.369-5.031-6.538-7.973-8.06-10.918
			c5.168,0.889,9.629-1.344,10.367-3.442c-3.353,1.17-7.128-0.359-9.532-1.846c0.554-7.199,14.977-10.312,29.651-9.481
			c0.815,0.046,1.583,0.045,2.317,0.013c0.028,0,0.052,0.003,0.081,0.002c0.012-0.002,0.024-0.004,0.036-0.005
			c3.781-0.184,6.493-1.35,8.316-2.926C284.461,117.31,285.143,109.591,284.674,104.365z"/>
		<path style="fill:#FFB573;" d="M226.708,158.189c2.564,3.73,6.623,5.912,10.305,6.511c5.539,0.901,7.736-4.21,5.718-9.117
			c-1.817-4.417-6.888-10.209-12.217-8.872C225.264,148.027,223.776,153.924,226.708,158.189z"/>
		<path style="fill:#ED893E;" d="M271.17,138.561c0,0,4.957,7.35,9.315,10.446c-1.968,2.879-6.409,2.787-6.409,2.787L271.17,138.561
			z"/>
		<path style="fill:#263238;" d="M267.583,158.392c-5.481,0.501-8.763-2.632-8.914-2.779c-0.166-0.162-0.168-0.428-0.005-0.596
			c0.163-0.168,0.429-0.172,0.595-0.011c0.038,0.037,3.867,3.669,9.991,2.267c0.227-0.051,0.451,0.09,0.501,0.317
			c0.05,0.227-0.094,0.453-0.321,0.505C268.79,158.242,268.174,158.338,267.583,158.392z"/>
		<path style="fill:#263238;" d="M251.3,137.386c-0.14,0.003-0.283-0.029-0.414-0.1c-0.408-0.219-0.558-0.73-0.336-1.141
			c2.232-4.114,6.104-4.495,6.268-4.51c0.464-0.041,0.869,0.303,0.905,0.767c0.036,0.462-0.308,0.87-0.77,0.913l0,0
			c-0.127,0.012-3.143,0.342-4.925,3.625C251.877,137.219,251.594,137.38,251.3,137.386z"/>
		<path style="fill:#263238;" d="M258.848,142.947c-0.108-0.017-0.212-0.06-0.303-0.132c-0.282-0.223-0.328-0.634-0.102-0.918
			c2.265-2.842,5.277-2.608,5.404-2.597c0.361,0.032,0.623,0.35,0.587,0.709c-0.035,0.358-0.354,0.623-0.712,0.593l0,0
			c-0.099-0.008-2.449-0.165-4.257,2.103C259.312,142.898,259.073,142.982,258.848,142.947z"/>
		<path style="fill:#263238;" d="M281.225,138.116c0.097-0.05,0.182-0.124,0.246-0.222c0.197-0.301,0.11-0.705-0.195-0.903
			c-3.05-1.977-5.831-0.799-5.948-0.748c-0.332,0.145-0.48,0.529-0.332,0.859c0.147,0.329,0.533,0.479,0.864,0.337l0,0
			c0.092-0.039,2.27-0.934,4.704,0.643C280.769,138.216,281.022,138.221,281.225,138.116z"/>
		<path style="fill:#263238;" d="M281.201,130.897c-0.256,0.096-0.552,0.065-0.787-0.108c-2.987-2.19-5.843-1.166-5.963-1.121
			c-0.435,0.162-0.917-0.058-1.077-0.493c-0.16-0.435,0.059-0.92,0.492-1.086c0.158-0.057,3.803-1.411,7.545,1.333
			c0.374,0.274,0.453,0.802,0.178,1.18C281.487,130.742,281.351,130.841,281.201,130.897z"/>
		<path style="fill:#FFB573;" d="M229.773,207.082c0.766,1.567,1.913,3.466,3.309,5.395c1.412,1.924,3.022,3.931,4.805,5.882
			c1.789,1.949,3.671,3.921,5.679,5.818c2.012,1.894,4.106,3.757,6.249,5.58c2.15,1.816,4.368,3.573,6.632,5.26
			c2.246,1.711,4.546,3.346,6.869,4.877c2.317,1.54,4.684,2.942,6.978,4.243c2.283,1.276,4.586,2.373,6.442,3.078l-2.221-0.444
			c0.592,0.204,1.565,0.25,2.941-0.005c1.363-0.257,3.029-0.853,4.789-1.714c1.753-0.861,3.608-1.968,5.464-3.222
			c1.858-1.266,3.699-2.709,5.545-4.232c1.854-1.518,3.685-3.143,5.482-4.848c1.807-1.695,3.614-3.445,5.371-5.264
			c1.764-1.814,3.531-3.657,5.248-5.553c0.872-0.938,1.731-1.889,2.578-2.847l2.488-2.794l0.252-0.283
			c2.557-2.872,6.959-3.128,9.832-0.57c2.31,2.057,2.922,5.315,1.745,8.003c-0.63,1.434-1.202,2.643-1.828,3.935
			c-0.629,1.262-1.27,2.513-1.928,3.757c-1.342,2.469-2.735,4.919-4.233,7.32c-1.513,2.391-3.069,4.778-4.758,7.106
			c-1.694,2.322-3.48,4.615-5.39,6.872c-1.92,2.249-3.999,4.425-6.247,6.558c-2.264,2.125-4.707,4.195-7.52,6.085
			c-2.793,1.903-5.959,3.652-9.689,4.978c-3.704,1.325-8.119,2.136-12.838,1.766c-0.543-0.043-1.07-0.133-1.578-0.268l-0.644-0.176
			c-4.092-1.112-7.518-2.48-10.811-3.945c-3.275-1.461-6.332-3.107-9.325-4.799c-2.986-1.702-5.879-3.491-8.708-5.369
			c-2.812-1.901-5.56-3.888-8.255-5.965c-5.402-4.144-10.525-8.719-15.383-13.947c-2.407-2.637-4.777-5.421-6.971-8.561
			c-2.202-3.135-4.297-6.579-6.017-10.714c-2.958-7.112,0.41-15.275,7.522-18.233c6.837-2.844,14.646,0.159,17.867,6.714
			L229.773,207.082z"/>
		<path style="fill:#FFB573;" d="M312.201,223.705l-1.255-15.941l18.774,3.913c0,0-0.616,14.572-8.411,15.496L312.201,223.705z"/>
		<path style="fill:#FFB573;" d="M321.635,195.05l6.349,2.481c2.527,0.988,3.968,3.66,3.403,6.314l-1.666,7.831l-18.774-3.913
			l3.469-9.46C315.485,195.387,318.742,193.92,321.635,195.05z"/>
		<path style="fill:#FFFFFF;" d="M205.51,213.091c3.637-13.697,24.481-24.724,45.503,13.418
			c-2.326,16.457-19.973,29.408-19.973,29.408S200.854,230.625,205.51,213.091z"/>
		<g>
			<path style="fill:#407BFF;" d="M201.007,211.677c3.975-15.95,26.026-31.237,47.728,8.925
				c-2.626,18.885-21.333,35.906-21.333,35.906S195.918,232.095,201.007,211.677z"/>
			<path style="opacity:0.2;" d="M201.007,211.677c3.975-15.95,26.026-31.237,47.728,8.925
				c-2.626,18.885-21.333,35.906-21.333,35.906S195.918,232.095,201.007,211.677z"/>
		</g>
	</g>
</g>
</svg>
