<?xml version="1.0" encoding="utf-8"?>
<!-- Generator: Adobe Illustrator 27.5.0, SVG Export Plug-In . SVG Version: 6.00 Build 0)  -->
<svg version="1.1" id="Capa_2" xmlns="http://www.w3.org/2000/svg" xmlns:xlink="http://www.w3.org/1999/xlink" x="0px" y="0px"
	 viewBox="0 0 2122 2122" style="enable-background:new 0 0 2122 2122;" xml:space="preserve">
<g>
	<g>
		<g>
			<path style="fill:#E68A28;" d="M520.269,1450.359l-26.738,35.844l154.367,206.801l179.848-226.336
				C730.078,1453.969,618.207,1450.156,520.269,1450.359z"/>
			<path style="fill:#E68A28;" d="M1293.582,1466.668l179.848,226.336l154.367-206.801l-26.738-35.844
				C1503.121,1450.156,1391.238,1453.969,1293.582,1466.668z"/>
			<path style="fill:#43B9BB;" d="M1626.18,701.43c0,0-50.738-4.723-122.309-7.434c33.508,44.223,65.848,89.527,102.684,125.211
				c0,0-3.43-0.176-9.426-0.422c10.184,5.879,17.082,13.578,22.578,24.297c-5.223-0.188-10.434-0.375-15.656-0.555
				c-31.797-1.086-79.816-7.012-106.301,14.473c-31.043,25.195,14.004,62.613,6.449,91.797
				c-5.512,21.289-39.531,20.84-56.309,21.137c-46.395,0.836-93.137-6.09-138.941-12.578
				c-86.742-12.277-173.75-31.996-261.445-35.918c-56.953-2.543-111.035,9.848-166.645,20.031
				c-58.34,10.68-116.93,14.27-176.039,8.656c-42.074-4-87.461-9.359-126.594-26.348c-21.797-9.457-46.031-26.918-53.457-50.82
				c-7.23-23.293,25.512-38.313,41.668-47.719c14.43-8.398,29.203-16.535,44.402-23.449c0.164-0.07,0.32-0.137,0.488-0.211
				c22.594-34.422,43.731-72.258,64.348-109.145c-100.664,1.559-180.539,8.996-180.539,8.996l-121.488,641.535
				c137.199-9.316,513.438-17.484,655.82,62.715c15.598,8.781,21.648-459.441,31.188-448.199
				c7.922-9.324,27.578,459.805,39.73,452.184c136.23-85.418,507.52-76.191,647.281-66.699L1626.18,701.43z"/>
			<path style="fill:#0089A5;" d="M1597.129,818.785c-54.605-2.266-325.285-10.754-217.352,48.938
				c109.066,60.313-369.234-6.082-559.449,17.984c-315.445,39.91-220.938-66.5-220.938-66.5c4.023-5.754,8-11.641,11.938-17.629
				c-0.168,0.074-0.324,0.141-0.488,0.211c-15.199,6.914-29.973,15.051-44.402,23.449c-16.156,9.406-48.898,24.426-41.668,47.719
				c7.426,23.902,31.66,41.363,53.457,50.82c39.133,16.988,84.52,22.348,126.594,26.348c59.109,5.613,117.699,2.023,176.039-8.656
				c55.609-10.183,109.691-22.574,166.645-20.031c87.695,3.922,174.703,23.641,261.445,35.918
				c45.805,6.488,92.547,13.414,138.941,12.578c16.777-0.297,50.797,0.152,56.309-21.137c7.555-29.184-37.492-66.602-6.449-91.797
				c26.484-21.484,74.504-15.559,106.301-14.473c5.223,0.18,10.434,0.367,15.656,0.555
				C1614.211,832.363,1607.313,824.664,1597.129,818.785z"/>
			<path style="fill:#E68A28;" d="M1061.105,617.871c-0.008-0.004-0.008-0.012-0.02-0.016c-2.922,0.902-2.086,5.625-2.055,6.512
				c0.262,10.91-5.313,23.531-7.961,32.688c-0.547,1.879,6.859,10.238,6.617,15.824c-0.148,3.324-1.941,6.75-4.113,10.207
				c-8.488-1.027-17.102-1.496-25.617-1.496c-4.492,0-8.957,0.082-13.359,0.211c-0.234-2.977-0.859-5.496-2.184-6.867
				c-12.473-12.945-20.031-19.93-14.906-24.766c3.066-2.906,14.742-21.16,17.918-23.961c1.977-1.738,4.668-0.719,4.871-3.629
				c0.039-0.531,0.633-1.438,1.152-2.473l-12.699-0.422c-0.769-0.297-1.207-0.977-1.469-1.828c-0.742,1.836,0.027,4.75-0.684,5.129
				c-6.774,3.605-17.402,23.656-29.34,26.578c-8.469,2.07,5.406,10.055,3.031,23.316c-0.176,1-0.508,2.008-0.898,3.027L978.289,675
				c-16.281-10.246-25.859-15.617-22.457-21.254c2.047-3.391,7.481-26.578,9.656-29.879c1.238-1.871,3.742-1.656,3.644-3.75h-13.664
				c0.371,1.074,0.723,1.988,0.422,2.258c-5.41,4.75-9.25,29.484-19.891,34.531c-7.531,3.574,8.5,8.75,10.477,22.047
				c1.316,8.875-6.219,20.316-3.168,29.141c0.305,0.875,1.57,2.75,3.605,4.996c0.391,0.809,0.82,1.621,1.324,2.457
				c-3.008,0.652-6.039,1.32-8.406,0.195c-2.242-1.07-4.199-2.453-5.398-4.273c-1.793-2.738-1.363-5.938-1.172-8.891
				c0.098-1.625,2.273-7.363,2.047-8.98c-0.125-0.887-0.504-1.422-0.945-2.223c-0.523-0.949-0.418-2.043-0.973-2.981
				c-0.605-1.047-1.91-1.887-3.09-2.594c-1.227-0.734-2.707-1.355-4.238-1.684c-1.219-0.266-3.293-0.773-4.5-0.293l0.758,0.715
				c-2.504,0.055-4.91-0.16-7.375,0.402c-1.988,0.449-4.66,0.988-5.43,2.648c1.074,0.066,2.254,0.008,3.273,0.273
				c-0.887,0.152-2.043,1.039-1.918,1.758c2.484-0.703,5.934,0.004,8.43,0.5c2.621,0.531,3.73,1.535,5.484,3.043
				c6.285,5.418,2.242,13.727,5.625,19.98c2.734,5.066,13.328,6.383,20.91,6.688c4.918,6.051,12.18,11.785,19.809,13.813
				c5.195,1.379,10.203,1.516,15.348,3.434c6.938,2.594,13.477,5.773,19.918,9c1.227,0.613,2.395,1.254,3.535,1.895
				c-0.008,0.512,0.09,1.047,0.039,1.535c-0.176,1.871-0.633,3.648-0.02,5.48c0.332,1.016,0.449,2.059,0.828,3.055
				c0.508,1.332,1.18,2.531,1.383,3.93c0.371,2.473,0.769,5.027,0.781,7.519c0.008,2.793-0.215,5.336,0.438,8.145
				c0.613,2.613,1.402,5.293,2.711,7.766c1.762,3.309,1.606,6.785,3.176,10.07c0.965,1.992,2.543,3.379,4.695,4.332
				c-0.828,0.481-1.434,1.066-1.644,1.773c-0.711,2.41,3.039,5.102,8.367,6.012c3.305,0.563,6.434,0.309,8.52-0.531
				c0.672,0.066,1.371,0.098,2.082,0.098c5.477,0,9.91-2,9.91-4.473c0-1.359-1.363-2.563-3.488-3.387
				c0.723-1.676-0.621-4.234-0.301-5.773c0.137-0.652,0.684-1.641-0.031-2.082l-1.09-0.254l0.418-0.481l0.109-0.617l0.516-0.578
				l0.137-0.656l0.438-0.566l0.188-0.68l0.02-1.34c0.066-0.59,0.02-0.797-0.703-1.047l-0.203-0.469l-0.547-0.266
				c-0.457-0.125-1.023-0.152-1.512-0.129c-0.738,0.035-2.086,0.629-2.242,1.223c-0.398,1.508-2.582,1.816-3.777,0.613
				c-0.508-0.512-0.965-1.344-1.23-1.953c-0.66-1.531,2.242-2.316,3.332-3.352c1.414-1.352,2.398-2.953,3.324-4.52
				c0.809-1.355,1.617-2.637,2.973-3.738c0.605-0.492,0.984-1.121,1.637-1.59c0.625-0.438,1.414-0.688,1.996-1.16
				c0.977-0.777,1.406-1.555,2.992-1.543c1.285,0.008,2.613,0.488,3.887,0.633c1.852,0.215,3.859-0.016,5.613,0.629
				c0.984,0.363,1.727,1.031,2.738,1.394c0.535,0.191,1.344,0.496,1.902,0.18l0.613-1.133c0.699-0.891,2.184-1.231,2.523-2.375
				l0.125-0.68l0.586-0.516c1.801-1.859,2.992-4.27,3.887-6.504c0.898-2.25,1.422-4.23,1.617-5.433v-0.02
				c0.305-2.023,0.402-4.02,0.402-5.969c0-4.348-0.508-8.523-0.605-12.504c-0.031-0.777-0.039-1.559-0.059-2.348
				c6.363-5.902,12.531-10.492,18.418-13.434c3.992,1.16,7.93,3.16,11.059,5.125c5.719,3.574,11.379,6.144,18.086,6.141
				c2.18,0,4.48-0.367,6.879-0.934l0.156,0.227c1.684,2.605,4.141,3.844,7.512,5.488c2.883,1.414,6.215,2.41,8.875,4.09
				c3.969,2.512,3.813,3.793,9.074,3.883c4.188,0.074,5.809,2.555,9.742,3.504c4.113,0.996,8.977,1.121,12.484-0.82
				c3.242-1.785,6.711-3.359,10.484-4.434c3.75-1.07,7.695-1.563,11.605-2.148c1.957-0.293,4.023-0.836,5.133-2.191
				c1.082-1.305,1.063-2.688,2.797-3.656c1.629-0.898,2.848-2.063,1.648-3.617c-1.316-1.719-4.426-1.875-6.742-2.086
				c-2.164-0.195-4.289-0.484-6.422-0.785c-2.281-0.324-4.738-0.16-6.969-0.598c-2.551-0.5-4.188-2.481-5.086-4.246
				c-0.457-0.91-0.508-1.742-1.148-2.625c-0.762-1.047-1.648-2.039-2.652-2.961c-1.48-1.367-2.602-2.078-4.727-2.727
				c-2.191-0.664-3.848-2.512-6.391-2.555c-2.086-0.035-1.363,1.133-1.031,2.121c-1.746-0.055-3.207-1.656-4.973-1.863
				c-0.582-0.07-1.801-0.121-2.375-0.008c-0.789,0.156-1.102,0.688-1.676,1.059c-2.68,1.738-5.867-1.949-8.605-1.379
				c-1.258,0.258-3.566,0.285-4.852,0.109c-1.266-0.176-2.496-0.992-3.422-1.637c-2.164-1.512-3.723-3.516-5.105-5.457
				c-0.711-1.012-10.797-18.156-28.91-14.082c-0.527-2.363,0.477-4.809,1.754-6.922c1.715-2.852,3.684-5.719,6.352-8.137
				c2.352-2.133,4.68-4.031,5.184-6.82c1.004-5.625-0.965-11.352-1.391-16.961c-0.215-2.703-0.371-5.727,1.148-8.254
				c2.164-3.613,4.832-6.988,7.164-10.531c1.441-2.203,4.852-2.023,3.848-4.816c-0.398-1.117,1.453-4.699-1.055-6.469l-14.273,4.078
				c-2.902,1.668,1.219,5.969,0.371,6.727c-5.953,5.348-12.832,25.773-16.449,32.273c-2.98,5.359-7.805,7.695-12.988,9.699
				l-0.098-0.133c-12.48-12.945-23.719-15.969-22.625-22.109c0.652-3.695-2.445-22.469,0.699-25.281
				c1.961-1.754,4.66-0.75,4.836-3.664c0.078-1.102,2.484-3.789,1.598-6.023c-0.059,0.184-0.078,0.371-0.168,0.551L1061.105,617.871
				z"/>
			<g>
				<path style="fill:#1C3156;" d="M1663.672,731.047c0,0-19.066-17.461-37.492-29.617l121.488,641.535
					c-139.762-9.492-511.051-18.719-647.281,66.699c-12.152,7.621-31.809-461.508-39.73-452.184
					c-9.539-11.242-15.59,456.98-31.188,448.199c-142.383-80.199-518.621-72.031-655.82-62.715L495.137,701.43
					c-18.426,12.156-37.492,29.617-37.492,29.617L312.25,1456.945c45.242-3.066,121.141-6.406,208.019-6.586
					c97.938-0.203,209.809,3.609,307.477,16.309c48.379,6.289,93.277,14.75,131.242,26.012
					c46.195,13.684,82.152,31.488,101.668,54.477c19.52-22.988,55.477-40.793,101.672-54.477
					c37.973-11.262,82.863-19.723,131.254-26.012c97.656-12.699,209.539-16.512,307.477-16.309
					c86.879,0.18,162.773,3.52,208.008,6.586L1663.672,731.047z"/>
				<path style="fill:#1C3156;" d="M914.945,529.313c2.465,0.738,4.871,0.457,7.375,0.531l-0.758,0.938
					c1.207,0.641,3.281-0.031,4.5-0.383c1.531-0.434,3.012-1.254,4.238-2.223c1.18-0.93,2.484-2.043,3.09-3.426
					c0.555-1.238,0.449-2.68,0.973-3.93c0.441-1.055,0.82-1.766,0.945-2.934c0.227-2.137-1.949-9.711-2.047-11.856
					c-0.191-3.898-0.621-8.121,1.172-11.734c1.199-2.398,3.156-4.227,5.398-5.637c2.367-1.488,5.398-0.602,8.406,0.254
					c-0.504,1.086-0.914,2.141-1.305,3.188c-2.066,3-3.313,5.488-3.625,6.652c-3.051,11.648,4.484,26.746,3.168,38.461
					c-1.977,17.547-18.008,24.379-10.477,29.098c3.129,1.957,5.652,6.176,7.816,11.285c5.203,12.297,8.254,29.867,12.074,34.293
					c0.426,0.504-0.441,2.652-0.828,4.766c-0.07,0.406-0.129,0.809-0.148,1.199c-0.059,0.859,0.02,1.656,0.391,2.262h0.164h13.664
					h0.289c-0.047-0.809-0.152-1.582-0.25-2.281c-0.098-0.676-0.148-1.246-0.137-1.691c0-0.129-0.012-0.281,0.008-0.383
					c0.73-3.781-2.203-3.129-3.555-5.844c-1.172-2.336-3.273-12.246-5.293-21.617c-1.742-8.07-3.418-15.746-4.363-17.816
					c-3.402-7.438,6.176-14.527,22.457-28.055c0.383-0.316,0.754-0.73,1.102-1.195c0.391,1.344,0.723,2.68,0.898,4
					c2.375,17.5-11.5,28.035-3.031,30.773c9.668,3.125,18.484,21.074,25.082,30.316c1.551,2.168,2.973,3.859,4.258,4.766
					c0.711,0.5-0.059,4.34,0.684,6.766c0.262,0.851,0.699,1.531,1.469,1.828l12.699,0.422l0.348,0.012
					c0.313-0.68,0.391-1.402,0.363-2.133c0-0.043,0-0.086,0-0.129c0-0.063,0-0.121-0.012-0.184
					c-0.027-0.355-0.098-0.711-0.176-1.063c-0.477-2.066-1.617-4-1.676-4.984c-0.176-3.383-2.277-2.75-4.129-4.113
					c-0.254-0.184-0.5-0.402-0.742-0.68c-3.176-3.695-14.852-27.789-17.918-31.625c-5.125-6.383,2.434-15.598,14.906-32.688
					c1.324-1.809,1.949-5.133,2.184-9.063c4.402,0.172,8.867,0.277,13.359,0.277c8.516,0,17.141-0.59,25.625-1.949
					c2.176,4.555,3.957,9.066,4.105,13.449c0.242,7.371-7.164,18.406-6.617,20.879c1.723,7.871,4.668,17.668,6.449,27.523
					c0.965,5.293,1.609,10.594,1.512,15.625c-0.031,1.172-0.867,7.406,2.055,8.594c0.012,0.004,0.012,0.012,0.02,0.016l13.047,0.535
					c0.09-0.18,0.109-0.367,0.168-0.551c0.887-2.949-1.52-6.496-1.598-7.949c-0.176-3.848-2.875-2.519-4.836-4.836
					c-1.684-1.984-1.578-9.992-1.215-17.762c0.309-6.762,0.816-13.34,0.516-15.605c-1.094-8.109,10.145-12.094,22.625-29.184
					l0.098-0.176c5.184,2.648,10.008,5.731,12.988,12.805c0.156,0.363,0.32,0.809,0.488,1.238
					c3.723,9.648,10.262,34.605,15.961,41.355c0.848,1-3.273,6.68-0.371,8.879l14.273,5.383c2.508-2.34,0.656-7.059,1.055-8.539
					c1.004-3.684-2.406-3.445-3.848-6.355c-2.332-4.676-5-9.129-7.164-13.898c-1.52-3.336-1.363-7.328-1.148-10.894
					c0.426-7.406,2.395-14.969,1.391-22.387c-0.367-2.711-1.734-4.785-3.371-6.813c-0.574-0.727-1.188-1.449-1.813-2.191
					c-2.668-3.191-4.637-6.973-6.352-10.738c-1.277-2.793-2.281-6.016-1.754-9.137c18.113,5.375,28.199-17.25,28.91-18.586
					c1.383-2.566,2.941-5.207,5.105-7.203c0.926-0.855,2.156-1.93,3.422-2.16c1.285-0.234,3.594-0.199,4.852,0.141
					c2.738,0.758,5.926-4.109,8.605-1.816c0.574,0.492,0.887,1.188,1.676,1.398c0.574,0.152,1.793,0.082,2.375-0.012
					c1.766-0.277,3.227-2.387,4.973-2.465c-0.332,1.309-1.055,2.852,1.031,2.809c2.543-0.059,4.199-2.496,6.391-3.379
					c2.125-0.855,3.246-1.793,4.727-3.594c1.004-1.219,1.891-2.527,2.652-3.906c0.641-1.172,0.691-2.266,1.148-3.465
					c0.898-2.336,2.535-4.949,5.086-5.609c2.23-0.574,4.688-0.359,6.969-0.789c2.133-0.398,4.258-0.773,6.422-1.035
					c2.316-0.273,5.426-0.484,6.742-2.75c1.199-2.055-0.02-3.59-1.648-4.777c-1.734-1.277-1.715-3.102-2.797-4.824
					c-1.109-1.789-3.176-2.504-5.133-2.895c-3.91-0.77-7.855-1.418-11.605-2.832c-3.773-1.418-7.242-3.496-10.484-5.855
					c-3.508-2.559-8.371-2.398-12.484-1.082c-3.934,1.254-5.555,4.527-9.742,4.625c-5.262,0.121-5.105,1.813-9.074,5.125
					c-2.66,2.223-5.992,3.531-8.875,5.398c-3.371,2.172-5.828,3.805-7.512,7.246l-0.52,0.957c-2.238-0.656-4.422-1.094-6.516-1.094
					c-6.938,0.008-12.641,3.473-18.359,8.176c-2.875,2.395-6.449,4.813-10.066,6.359c-6.098-3.859-12.5-10.082-19.129-18.188
					c0.012-1.063,0.031-2.129,0.051-3.141c0.117-5.348,0.613-10.852,0.613-16.469c0-2.535-0.105-5.094-0.391-7.672
					c-0.234-1.902-1.07-5.93-2.531-9.809c-0.73-1.934-1.609-3.801-2.77-5.363l-0.797-0.793c0.008-0.547-0.02-1.094-0.137-1.602
					c-0.34-1.508-1.824-1.961-2.523-3.137l-0.613-1.496c-0.559-0.414-1.367-0.012-1.902,0.238c-1.012,0.484-1.754,1.359-2.738,1.844
					c-1.754,0.848-3.762,0.547-5.613,0.828c-1.273,0.191-2.602,0.824-3.887,0.832c-1.586,0.02-2.016-1.008-2.992-2.031
					c-0.582-0.621-1.371-0.953-1.996-1.535c-0.652-0.613-1.031-1.445-1.637-2.094c-1.355-1.453-2.164-3.148-2.973-4.938
					c-0.926-2.063-1.91-4.18-3.324-5.965c-1.09-1.367-3.992-2.402-3.332-4.426c0.266-0.797,0.723-1.898,1.23-2.578
					c1.195-1.586,3.379-1.18,3.777,0.816c0.156,0.781,1.504,1.563,2.242,1.609c0.488,0.031,1.055-0.004,1.512-0.172l0.547-0.348
					l0.203-0.617c0.723-0.332,0.77-0.605,0.703-1.387c-0.051-0.582,0.059-1.188-0.02-1.766l-0.188-0.898l-0.438-0.746l-0.137-0.867
					l-0.516-0.766l-0.109-0.813l-0.418-0.633l1.09-0.336c0.715-0.578,0.168-1.887,0.031-2.746c-0.32-2.031,1.023-5.414,0.301-7.621
					c2.125-1.086,3.488-2.672,3.488-4.469c0-3.266-4.434-5.906-9.91-5.906c-0.711,0-1.41,0.047-2.082,0.133
					c-2.086-1.109-5.215-1.445-8.52-0.707c-5.328,1.203-9.078,4.758-8.367,7.938c0.211,0.934,0.816,1.711,1.644,2.34
					c-2.152,1.258-3.742,3.09-4.695,5.719c-1.57,4.336-1.414,8.926-3.176,13.297c-1.308,3.258-2.098,6.797-2.711,10.246
					c-0.652,3.707-0.43,7.063-0.438,10.746c-0.012,3.289-0.41,6.664-0.781,9.93c-0.203,1.84-0.875,3.426-1.383,5.184
					c-0.379,1.316-0.496,2.695-0.828,4.031c-0.613,2.418-0.156,4.77,0.02,7.234c0.051,0.645-0.047,1.352-0.039,2.027
					c-1.141,0.848-2.309,1.691-3.535,2.504c-6.441,4.258-12.98,8.453-19.918,11.871c-5.145,2.535-10.152,2.719-15.348,4.535
					c-7.629,2.676-14.891,10.246-19.809,18.23c-7.582,0.402-18.176,2.145-20.91,8.832c-3.383,8.25,0.66,19.219-5.625,26.367
					c-1.754,1.992-2.863,3.316-5.484,4.012c-2.496,0.66-5.945,1.59-8.43,0.664c-0.125,0.949,1.031,2.121,1.918,2.324
					c-1.02,0.348-2.199,0.27-3.273,0.359C910.285,528.004,912.957,528.715,914.945,529.313z M1109.758,480.652
					c5.457-4.492,10.039-7.047,15.184-7.043c1.273,0.004,2.641,0.207,4.063,0.547c-7.797,12.703-16.918,15.848-26.961,11.824
					C1104.906,484.367,1107.527,482.461,1109.758,480.652z M1054.547,433.961v-0.523c-0.008-4.254,2.711-6.719,6.852-7.785
					l0.684-0.102l0.328,0.391c1.055,0.848,2.566,0.684,3.441-0.328c0.859,0.043,1.707,0.035,2.496-0.113
					c0.262,0.359,0.555,0.77,0.828,1.281c1.949,3.477,3.352,9.75,3.527,11.477c0.262,2.332,0.359,4.699,0.359,7.102
					c0,4.527-0.32,9.176-0.508,13.891c-4.453-5.016-9.324-9.625-14.859-13.691c-1.031-0.758-2.133-1.457-3.273-2.102
					C1054.547,440.344,1054.547,437.184,1054.547,433.961z"/>
			</g>
		</g>
		<g>
			<path style="fill:#FBBD56;" d="M647.898,1693.004l95.246,61.285l215.844-261.609c-37.965-11.262-82.863-19.723-131.242-26.012
				L647.898,1693.004z"/>
			<path style="fill:#FBBD56;" d="M1162.328,1492.68l215.852,261.609l95.25-61.285l-179.848-226.336
				C1245.191,1472.957,1200.301,1481.418,1162.328,1492.68z"/>
			<path style="fill:#FBBD56;" d="M1021.797,620.117l-0.348-0.012c-0.52,1.035-1.113,1.941-1.152,2.473
				c-0.203,2.91-2.895,1.891-4.871,3.629c-3.176,2.801-14.852,21.055-17.918,23.961c-5.125,4.836,2.434,11.82,14.906,24.766
				c1.324,1.371,1.949,3.891,2.184,6.867c4.402-0.129,8.867-0.211,13.359-0.211c8.516,0,17.129,0.469,25.617,1.496
				c2.172-3.457,3.965-6.883,4.113-10.207c0.242-5.586-7.164-13.945-6.617-15.824c2.648-9.156,8.223-21.777,7.961-32.688
				c-0.031-0.887-0.867-5.609,2.055-6.512c-2.922-1.188-2.086-7.422-2.055-8.594c0.098-5.031-0.547-10.332-1.512-15.625
				c-10.777,6.894-22.039,11.949-34.309,13.426c-2.379,0.289-4.715,0.414-7.043,0.449c1.851,1.363,3.953,0.73,4.129,4.113
				c0.059,0.984,1.199,2.918,1.676,4.984c0.129,0.348,0.195,0.703,0.176,1.063c0.012,0.063,0.012,0.121,0.012,0.184
				c0,0.043,0,0.086,0,0.129C1022.188,618.715,1022.109,619.438,1021.797,620.117z"/>
			<path style="fill:#FBBD56;" d="M969.043,615.762c-0.02,0.102-0.008,0.254-0.008,0.383c-0.012,0.445,0.039,1.016,0.137,1.691
				c0.098,0.699,0.203,1.473,0.25,2.281h-0.289c0.098,2.094-2.406,1.879-3.644,3.75c-2.176,3.301-7.609,26.488-9.656,29.879
				c-3.402,5.637,6.176,11.008,22.457,21.254l1.102,0.906c0.391-1.019,0.723-2.027,0.898-3.027
				c2.375-13.262-11.5-21.246-3.031-23.316c11.938-2.922,22.566-22.973,29.34-26.578c0.711-0.379-0.059-3.293,0.684-5.129
				c-0.742-2.426,0.027-6.266-0.684-6.766c-1.285-0.906-2.707-2.598-4.258-4.766c-14.676-2.664-28.512-9.578-42.145-18.023
				c2.02,9.371,4.121,19.281,5.293,21.617C966.84,612.633,969.773,611.981,969.043,615.762z"/>
			<path style="fill:#FBBD56;" d="M1503.871,693.996c-19.684-25.988-39.777-51.609-61.43-74.68
				c-94.129-100.328-201.781-148.719-311.559-83.336c-3.633,2.168-7.191,4.598-10.719,7.137c1.637,2.027,3.004,4.102,3.371,6.813
				c1.004,7.418-0.965,14.981-1.391,22.387c-0.215,3.566-0.371,7.559,1.148,10.894c2.164,4.77,4.832,9.223,7.164,13.898
				c1.441,2.91,4.852,2.672,3.848,6.355c-0.398,1.481,1.453,6.199-1.055,8.539l-14.273-5.383c-2.902-2.199,1.219-7.879,0.371-8.879
				c-5.699-6.75-12.238-31.707-15.961-41.355c-12.277,10.445-24.242,21.648-36.715,30.922c-0.363,7.77-0.469,15.777,1.215,17.762
				c1.961,2.316,4.66,0.988,4.836,4.836c0.078,1.453,2.484,5,1.598,7.949c0.887,2.234-1.52,4.922-1.598,6.023
				c-0.176,2.914-2.875,1.91-4.836,3.664c-3.145,2.813-0.047,21.586-0.699,25.281c-1.094,6.141,10.145,9.164,22.625,22.109
				l0.098,0.133c5.184-2.004,10.008-4.34,12.988-9.699c3.617-6.5,10.496-26.926,16.449-32.273c0.848-0.758-3.273-5.058-0.371-6.727
				l14.273-4.078c2.508,1.769,0.656,5.352,1.055,6.469c1.004,2.793-2.406,2.613-3.848,4.816c-2.332,3.543-5,6.918-7.164,10.531
				c-1.52,2.527-1.363,5.551-1.148,8.254c0.426,5.609,2.395,11.336,1.391,16.961c-0.504,2.789-2.832,4.688-5.184,6.82
				c-2.668,2.418-4.637,5.285-6.352,8.137c-1.277,2.113-2.281,4.559-1.754,6.922c18.113-4.074,28.199,13.07,28.91,14.082
				c1.383,1.942,2.941,3.945,5.105,5.457c0.926,0.645,2.156,1.461,3.422,1.637c1.285,0.176,3.594,0.148,4.852-0.109
				c2.738-0.57,5.926,3.117,8.605,1.379c0.574-0.371,0.887-0.902,1.676-1.059c0.574-0.113,1.793-0.063,2.375,0.008
				c1.766,0.207,3.227,1.809,4.973,1.863c-0.332-0.988-1.055-2.156,1.031-2.121c2.543,0.043,4.199,1.891,6.391,2.555
				c2.125,0.648,3.246,1.359,4.727,2.727c1.004,0.922,1.891,1.914,2.652,2.961c0.641,0.883,0.691,1.715,1.148,2.625
				c0.898,1.766,2.535,3.746,5.086,4.246c2.23,0.438,4.688,0.273,6.969,0.598c2.133,0.301,4.258,0.59,6.422,0.785
				c2.316,0.211,5.426,0.367,6.742,2.086c1.199,1.555-0.02,2.719-1.648,3.617c-1.734,0.969-1.715,2.352-2.797,3.656
				c-1.109,1.355-3.176,1.898-5.133,2.191c-3.91,0.586-7.855,1.078-11.605,2.148c-3.773,1.074-7.242,2.648-10.484,4.434
				c-3.508,1.941-8.371,1.816-12.484,0.82c-3.934-0.949-5.555-3.43-9.742-3.504c-5.262-0.09-5.105-1.371-9.074-3.883
				c-2.66-1.68-5.992-2.676-8.875-4.09c-3.371-1.644-5.828-2.883-7.512-5.488l-0.156-0.227c-2.398,0.567-4.699,0.934-6.879,0.934
				c-6.707,0.004-12.367-2.566-18.086-6.141c-3.129-1.965-7.066-3.965-11.059-5.125c-5.887,2.941-12.055,7.531-18.418,13.434
				c0.02,0.789,0.027,1.57,0.059,2.348c0.098,3.98,0.605,8.156,0.605,12.504c0,1.949-0.098,3.945-0.402,5.969v0.02
				c-0.195,1.203-0.719,3.183-1.617,5.433c-0.895,2.234-2.086,4.645-3.887,6.504l-0.586,0.516l-0.125,0.68
				c-0.34,1.144-1.824,1.484-2.523,2.375l-0.613,1.133c-0.559,0.316-1.367,0.012-1.902-0.18c-1.012-0.363-1.754-1.031-2.738-1.394
				c-1.754-0.645-3.762-0.414-5.613-0.629c-1.273-0.145-2.602-0.625-3.887-0.633c-1.586-0.012-2.016,0.766-2.992,1.543
				c-0.582,0.473-1.371,0.723-1.996,1.16c-0.652,0.469-1.031,1.098-1.637,1.59c-1.355,1.102-2.164,2.383-2.973,3.738
				c-0.926,1.566-1.91,3.168-3.324,4.52c-1.09,1.035-3.992,1.82-3.332,3.352c0.266,0.609,0.723,1.441,1.23,1.953
				c1.195,1.203,3.379,0.894,3.777-0.613c0.156-0.594,1.504-1.188,2.242-1.223c0.488-0.023,1.055,0.004,1.512,0.129l0.547,0.266
				l0.203,0.469c0.723,0.25,0.77,0.457,0.703,1.047l-0.02,1.34l-0.188,0.68l-0.438,0.566l-0.137,0.656l-0.516,0.578l-0.109,0.617
				l-0.418,0.481l1.09,0.254c0.715,0.441,0.168,1.43,0.031,2.082c-0.32,1.539,1.023,4.098,0.301,5.773
				c2.125,0.824,3.488,2.027,3.488,3.387c0,2.473-4.434,4.473-9.91,4.473c-0.711,0-1.41-0.031-2.082-0.098
				c-2.086,0.84-5.215,1.094-8.52,0.531c-5.328-0.91-9.078-3.602-8.367-6.012c0.211-0.707,0.816-1.293,1.644-1.773
				c-2.152-0.953-3.73-2.34-4.695-4.332c-1.57-3.285-1.414-6.762-3.176-10.07c-1.308-2.473-2.098-5.152-2.711-7.766
				c-0.652-2.809-0.43-5.352-0.438-8.145c-0.012-2.492-0.41-5.047-0.781-7.519c-0.203-1.398-0.875-2.598-1.383-3.93
				c-0.379-0.996-0.496-2.039-0.828-3.055c-0.613-1.832-0.156-3.609,0.02-5.48c0.051-0.488-0.047-1.023-0.039-1.535
				c-1.141-0.641-2.309-1.281-3.535-1.895c-6.441-3.227-12.98-6.406-19.918-9c-5.145-1.918-10.152-2.055-15.348-3.434
				c-7.629-2.027-14.891-7.762-19.809-13.813c-7.582-0.305-18.176-1.621-20.91-6.688c-3.383-6.254,0.66-14.563-5.625-19.98
				c-1.754-1.508-2.863-2.512-5.484-3.043c-2.496-0.496-5.945-1.203-8.43-0.5c-0.125-0.719,1.031-1.605,1.918-1.758
				c-1.02-0.266-2.199-0.207-3.273-0.273c0.77-1.66,3.441-2.199,5.43-2.648c2.465-0.563,4.871-0.348,7.375-0.402l-0.758-0.715
				c1.207-0.481,3.281,0.027,4.5,0.293c1.531,0.328,3.012,0.949,4.238,1.684c1.18,0.707,2.484,1.547,3.09,2.594
				c0.555,0.938,0.449,2.031,0.973,2.981c0.441,0.801,0.82,1.336,0.945,2.223c0.227,1.617-1.949,7.355-2.047,8.98
				c-0.191,2.953-0.621,6.152,1.172,8.891c1.199,1.82,3.156,3.203,5.398,4.273c2.367,1.125,5.398,0.457,8.406-0.195
				c-0.504-0.836-0.934-1.648-1.324-2.457c-2.035-2.246-3.301-4.121-3.605-4.996c-3.051-8.824,4.484-20.266,3.168-29.141
				c-1.977-13.297-18.008-18.473-10.477-22.047c10.641-5.047,14.48-29.781,19.891-34.531c0.301-0.269-0.051-1.184-0.422-2.258
				h-0.164c-0.371-0.605-0.449-1.402-0.391-2.262c-0.039-0.438,0.02-0.836,0.148-1.199c0.387-2.113,1.254-4.262,0.828-4.766
				c-3.82-4.426-6.871-21.996-12.074-34.293c-10.836-7.336-21.711-14.902-32.965-21.289
				c-37.379-21.234-81.605-28.668-120.406-13.375c-44.414,17.5-72.137,73.727-101.527,125.883
				c-4.395,7.797-8.809,15.691-13.242,23.617c-20.617,36.887-41.754,74.723-64.348,109.145c-3.938,5.988-7.914,11.875-11.938,17.629
				c0,0-94.508,106.41,220.938,66.5c190.215-24.066,668.516,42.328,559.449-17.984c-107.934-59.692,162.746-51.203,217.352-48.938
				c5.996,0.246,9.426,0.422,9.426,0.422C1569.719,783.523,1537.379,738.219,1503.871,693.996z"/>
			<path style="fill:#FBBD56;" d="M1073.051,748.547c0-3.371-0.32-6.902-0.496-10.516c-4.453,3.793-9.324,7.285-14.859,10.363
				c-1.031,0.574-2.133,1.106-3.273,1.59c0.125,2.363,0.137,4.758,0.125,7.199v0.395c-0.008,3.223,2.711,5.09,6.852,5.898
				l0.438,0.051l0.324-0.508c0.945-1,2.523-1.047,3.527-0.101l0.789,0.574c0.465-0.012,0.934,0.008,1.383,0.043l0.719-0.567
				c0.656-0.656,1.375-1.746,1.98-2.965c1.219-2.406,2.035-5.402,2.152-6.246v0.019
				C1072.965,752.074,1073.051,750.336,1073.051,748.547z"/>
			<path style="fill:#FBBD56;" d="M1124.941,726.535c1.156,0,2.367-0.09,3.633-0.293c-7.512-8.965-16.215-11.367-25.793-8.703
				c2.465,1.117,4.734,2.394,6.715,3.613C1114.934,724.539,1119.551,726.531,1124.941,726.535z"/>
		</g>
	</g>
	<g>
		<path style="fill:#E68A28;" d="M837.246,681.348c-8.789,0-8.789,13.621,0,13.621C846.023,694.969,846.023,681.348,837.246,681.348
			z"/>
		<path style="fill:#E68A28;" d="M884.543,688.688c-3.711,0-6.813,3.098-6.813,6.809v0.816c0,3.715,3.102,6.813,6.813,6.813
			c3.711,0,6.812-3.098,6.812-6.813v-0.816C891.355,691.785,888.254,688.688,884.543,688.688z"/>
		<path style="fill:#E68A28;" d="M847.105,725.75l-0.816,0.813c-2.621,2.625-2.621,7.008,0,9.633c2.621,2.625,7.004,2.625,9.637,0
			l0.809-0.816c2.629-2.621,2.629-7.004,0-9.629C854.113,723.125,849.727,723.125,847.105,725.75z"/>
		<path style="fill:#E68A28;" d="M741.832,703.367c-8.793,0-8.793,13.621,0,13.621C750.609,716.988,750.609,703.367,741.832,703.367
			z"/>
		<path style="fill:#E68A28;" d="M805.441,706.629c-8.789,0-8.789,13.621,0,13.621C814.219,720.25,814.219,706.629,805.441,706.629z
			"/>
		<path style="fill:#E68A28;" d="M809.453,638.414c-8.789,0-8.789,13.621,0,13.621C818.234,652.035,818.234,638.414,809.453,638.414
			z"/>
		<path style="fill:#E68A28;" d="M973.43,744.141h-0.82c-3.711,0-6.801,3.098-6.801,6.809c0,3.715,3.09,6.813,6.801,6.813h0.82
			c3.711,0,6.809-3.098,6.809-6.813C980.238,747.238,977.141,744.141,973.43,744.141z"/>
		<path style="fill:#E68A28;" d="M799.273,597.992c2.797,2.438,6.867,2.762,9.625,0c2.496-2.488,2.809-7.191,0-9.629
			c-0.652-0.578-1.344-1.117-2.074-1.605c-0.41-0.27-1.773-1.25-0.371-0.027c-2.797-2.438-6.871-2.762-9.629,0
			c-2.484,2.488-2.805,7.195,0,9.633c0.664,0.574,1.348,1.113,2.078,1.602C799.313,598.234,800.676,599.219,799.273,597.992z"/>
		<path style="fill:#E68A28;" d="M869.691,645.43c-0.719-0.496-1.488-0.906-2.395-1.039c-1.902-0.281-3.527-0.324-5.254,0.684
			c-1.52,0.894-2.66,2.371-3.129,4.074c-0.828,3.004,0.82,7.113,3.988,8.148c0.719,0.5,1.5,0.91,2.406,1.043
			c1.898,0.281,3.516,0.324,5.242-0.688c1.527-0.891,2.66-2.367,3.129-4.07C874.508,650.578,872.859,646.469,869.691,645.43z"/>
		<path style="fill:#E68A28;" d="M1192.516,559.742h0.809c3.711,0,6.813-3.098,6.813-6.813c0-3.711-3.102-6.809-6.813-6.809h-0.809
			c-3.711,0-6.813,3.098-6.813,6.809C1185.703,556.644,1188.805,559.742,1192.516,559.742z"/>
		<path style="fill:#E68A28;" d="M913.961,757.91c-8.781,0-8.781,13.621,0,13.621C922.75,771.531,922.75,757.91,913.961,757.91z"/>
		<path style="fill:#E68A28;" d="M1240.75,603.551c-3.715,0-6.813,3.094-6.813,6.809v0.813c0,3.715,3.098,6.813,6.813,6.813
			c3.711,0,6.809-3.098,6.809-6.813v-0.813C1247.559,606.644,1244.461,603.551,1240.75,603.551z"/>
		<path style="fill:#E68A28;" d="M992.633,818.883l-0.809,0.816c-2.629,2.621-2.629,7.008,0,9.629c2.621,2.625,7.008,2.625,9.629,0
			l0.816-0.813c2.621-2.625,2.621-7.008,0-9.633C999.648,816.258,995.266,816.258,992.633,818.883z"/>
		<path style="fill:#E68A28;" d="M851.512,757.91c-8.781,0-8.781,13.621,0,13.621C860.301,771.531,860.301,757.91,851.512,757.91z"
			/>
		<path style="fill:#E68A28;" d="M972.394,782.66c-8.777,0-8.777,13.621,0,13.621C981.184,796.281,981.184,782.66,972.394,782.66z"
			/>
		<path style="fill:#E68A28;" d="M1103.727,803.297c-8.789,0-8.789,13.617,0,13.617
			C1112.508,816.914,1112.508,803.297,1103.727,803.297z"/>
		<path style="fill:#E68A28;" d="M1165.242,793.422h-0.82c-3.711,0-6.809,3.102-6.809,6.813c0,3.711,3.098,6.813,6.809,6.813h0.82
			c3.711,0,6.813-3.102,6.813-6.813C1172.055,796.523,1168.953,793.422,1165.242,793.422z"/>
		<path style="fill:#E68A28;" d="M1261.621,571.699c-0.652-0.578-1.344-1.117-2.074-1.602c-0.41-0.273-1.773-1.254-0.371-0.031
			c-2.797-2.434-6.871-2.758-9.629,0c-2.484,2.488-2.805,7.195,0,9.633c0.664,0.574,1.344,1.117,2.078,1.605
			c0.406,0.27,1.773,1.25,0.367,0.023c2.797,2.438,6.871,2.762,9.629,0C1264.117,578.844,1264.426,574.141,1261.621,571.699z"/>
		<path style="fill:#E68A28;" d="M1196.316,575.977c-0.723-0.5-1.5-0.906-2.398-1.043c-1.898-0.277-3.527-0.324-5.25,0.688
			c-1.52,0.895-2.66,2.367-3.129,4.07c-0.828,3.008,0.816,7.117,3.984,8.148c0.723,0.504,1.5,0.914,2.398,1.047
			c1.898,0.281,3.527,0.324,5.25-0.688c1.52-0.891,2.66-2.367,3.129-4.07C1201.129,581.125,1199.484,577.012,1196.316,575.977z"/>
		<path style="fill:#E68A28;" d="M1135.23,782.711h-0.82c-3.711,0-6.809,3.098-6.809,6.813c0,3.711,3.098,6.809,6.809,6.809h0.82
			c3.711,0,6.809-3.098,6.809-6.809C1142.039,785.809,1138.941,782.711,1135.23,782.711z"/>
	</g>
	<g>
		<path style="fill:#FBBD56;" d="M954.797,1280.203c-119.129-30.547-241.828-41.082-364.215-41.082
			c-39.414,0-78.793,1.094-118.012,2.961c-4.133,0.203-7.316,3.711-7.121,7.836s3.703,7.316,7.832,7.125v-0.008
			c39.016-1.859,78.168-2.945,117.301-2.945c121.527,0,242.969,10.473,360.492,40.613c4.008,1.023,8.09-1.383,9.113-5.391
			C961.211,1285.309,958.801,1281.23,954.797,1280.203z"/>
		<path style="fill:#FBBD56;" d="M958.051,1235.02c-120.113-31.195-243.981-41.93-367.48-41.93
			c-36.051,0-72.086,0.918-107.984,2.504c-4.129,0.188-7.324,3.684-7.141,7.813c0.184,4.125,3.684,7.324,7.805,7.145
			c35.711-1.586,71.523-2.492,107.32-2.492c122.641,0,245.23,10.668,363.723,41.441c4.004,1.043,8.086-1.359,9.117-5.359
			C964.453,1240.141,962.059,1236.051,958.051,1235.02z"/>
		<path style="fill:#FBBD56;" d="M964.57,1190.688c-122.113-32.492-248.309-43.633-374.039-43.633
			c-31.57,0-63.121,0.707-94.567,1.949c-4.129,0.164-7.344,3.645-7.18,7.773c0.164,4.133,3.645,7.344,7.777,7.184
			c31.266-1.242,62.613-1.941,93.969-1.941c124.851,0,249.734,11.074,370.191,43.133c3.984,1.063,8.086-1.309,9.148-5.305
			C970.934,1195.859,968.566,1191.754,964.57,1190.688z"/>
		<path style="fill:#FBBD56;" d="M971.063,1146.41c-124.113-33.84-252.617-45.387-380.578-45.391
			c-28.211,0-56.379,0.563-84.48,1.574c-4.133,0.145-7.367,3.613-7.211,7.746c0.145,4.129,3.613,7.359,7.746,7.211
			c27.937-1.004,55.941-1.566,83.945-1.566c127.063,0,254.234,11.488,376.641,44.867c3.984,1.086,8.098-1.262,9.188-5.25
			C977.402,1151.613,975.047,1147.496,971.063,1146.41z"/>
		<path style="fill:#FBBD56;" d="M974.316,1101.273c-125.098-34.527-254.652-46.285-383.687-46.285
			c-24.895,0-49.77,0.438-74.598,1.234c-4.133,0.133-7.367,3.59-7.231,7.723c0.125,4.129,3.586,7.371,7.715,7.238
			c24.672-0.797,49.395-1.23,74.113-1.23c128.129,0,256.332,11.688,379.699,45.75c3.988,1.102,8.109-1.242,9.199-5.223
			C980.629,1106.496,978.289,1102.371,974.316,1101.273z"/>
		<path style="fill:#FBBD56;" d="M974.316,1055.242c-125.066-34.519-254.644-46.285-383.656-46.289
			c-21.555,0-43.09,0.328-64.594,0.934c-4.133,0.117-7.387,3.563-7.27,7.695c0.117,4.133,3.566,7.387,7.699,7.27
			c21.367-0.605,42.766-0.93,64.164-0.93c128.105-0.004,256.328,11.699,379.668,45.746c3.988,1.098,8.109-1.234,9.199-5.219
			C980.629,1060.465,978.289,1056.34,974.316,1055.242z"/>
		<path style="fill:#FBBD56;" d="M1648.766,1242.09v-0.008c-39.23-1.867-78.617-2.961-118.031-2.961
			c-122.387,0-245.094,10.535-364.215,41.082c-4.008,1.027-6.414,5.105-5.391,9.109c1.035,4.008,5.105,6.414,9.113,5.391
			c117.523-30.141,238.965-40.613,360.492-40.613c39.141,0,78.285,1.086,117.32,2.945c4.121,0.195,7.629-2.992,7.824-7.117
			S1652.887,1242.285,1648.766,1242.09z"/>
		<path style="fill:#FBBD56;" d="M1167.023,1249.5c118.488-30.773,241.09-41.441,363.719-41.441
			c35.813,0,71.621,0.906,107.324,2.492c4.129,0.18,7.617-3.02,7.805-7.145c0.184-4.129-3.012-7.625-7.145-7.813
			c-35.895-1.586-71.918-2.504-107.984-2.504c-123.496,0-247.363,10.734-367.48,41.93c-4.004,1.031-6.398,5.121-5.355,9.121
			C1158.938,1248.145,1163.031,1250.543,1167.023,1249.5z"/>
		<path style="fill:#FBBD56;" d="M1160.613,1205.152c120.438-32.059,245.328-43.133,370.18-43.133
			c31.348,0,62.691,0.699,93.973,1.941c4.121,0.16,7.609-3.051,7.773-7.184c0.156-4.129-3.059-7.609-7.18-7.773
			c-31.453-1.242-62.996-1.949-94.566-1.949c-125.73,0-251.926,11.141-374.027,43.633c-3.996,1.066-6.375,5.172-5.313,9.16
			C1152.516,1203.844,1156.617,1206.215,1160.613,1205.152z"/>
		<path style="fill:#FBBD56;" d="M1154.191,1160.852c122.395-33.379,249.566-44.867,376.648-44.867
			c28.008,0,56.012,0.563,83.957,1.566c4.121,0.148,7.59-3.082,7.746-7.211c0.145-4.133-3.078-7.602-7.211-7.746
			c-28.109-1.012-56.293-1.574-84.492-1.574c-127.969,0.004-256.484,11.551-380.586,45.391c-3.984,1.086-6.332,5.203-5.25,9.191
			C1146.094,1159.59,1150.207,1161.938,1154.191,1160.852z"/>
		<path style="fill:#FBBD56;" d="M1151.004,1115.703c123.352-34.063,251.555-45.75,379.691-45.75c24.719,0,49.441,0.434,74.113,1.23
			c4.133,0.133,7.59-3.109,7.727-7.238c0.129-4.133-3.109-7.59-7.238-7.723l0,0c-24.828-0.797-49.707-1.234-74.602-1.234
			c-129.043,0-258.598,11.758-383.676,46.285c-3.984,1.098-6.324,5.223-5.223,9.207
			C1142.898,1114.461,1147.02,1116.805,1151.004,1115.703z"/>
		<path style="fill:#FBBD56;" d="M1151.004,1069.668c123.324-34.047,251.555-45.75,379.66-45.746c21.398,0,42.789,0.324,64.156,0.93
			c4.133,0.117,7.582-3.137,7.699-7.27c0.117-4.133-3.137-7.578-7.27-7.695l0,0c-21.496-0.606-43.039-0.934-64.586-0.934
			c-129.012,0.004-258.586,11.77-383.645,46.289c-3.984,1.098-6.324,5.223-5.223,9.207S1147.02,1070.766,1151.004,1069.668z"/>
	</g>
	<g>
		<path style="fill:#0089A5;" d="M396.789,1362.988c296.496-2.957,442.766,27.547,452.918,29.758
			c19.586,4.266-323.652-17.23-300.578-10.844c-8.914,3.074,327.473,30.637,294.383,31.762
			c-49.5,1.684-338.543-11.621-441.574,13.941c114.617-8.699,290.754-10.988,376.113,1.75c14.742,2.203,28.957,4.563,42.602,7.02
			c10.563,1.902,20.793,3.871,30.664,5.867c93.512,18.941,127.246,28.273,159.531,38.004v-52.375
			C911.242,1371.285,640.559,1340.41,396.789,1362.988z"/>
		<path style="fill:#0089A5;" d="M1276.918,1413.664c-33.082-1.125,303.297-28.688,294.391-31.762
			c23.074-6.387-320.164,15.109-300.586,10.844c10.152-2.211,156.422-32.715,452.914-29.758
			c-243.766-22.578-514.449,8.297-614.055,64.883v52.375c32.285-9.73,66.027-19.063,159.531-38.004
			c9.883-1.996,20.102-3.965,30.664-5.867c13.652-2.457,27.859-4.816,42.602-7.02c85.359-12.738,261.504-10.449,376.125-1.75
			C1615.469,1402.043,1326.43,1415.348,1276.918,1413.664z"/>
	</g>
</g>
</svg>
